<svg xmlns="http://www.w3.org/2000/svg" version="1.1" viewBox="55 180.5 388.2 242.5">
<path d="M0 0 C1.10479706 -0.0127597 2.20959412 -0.02551941 3.34786987 -0.03866577 C4.54163239 -0.04089142 5.7353949 -0.04311707 6.96533203 -0.04541016 C8.80564499 -0.05539536 8.80564499 -0.05539536 10.68313599 -0.06558228 C13.28060403 -0.07571582 15.87809815 -0.08039908 18.47558594 -0.08007812 C22.45046919 -0.08444773 26.42423933 -0.12075279 30.39892578 -0.15869141 C32.9210574 -0.16456004 35.44319429 -0.16852912 37.96533203 -0.17041016 C39.15504608 -0.18478119 40.34476013 -0.19915222 41.57052612 -0.21395874 C49.82045879 -0.16827076 49.82045879 -0.16827076 53.82519531 2.19433594 C56.80254067 5.71450769 56.70906589 7.86391971 56.66064453 12.41552734 C56.65162109 13.51123047 56.64259766 14.60693359 56.63330078 15.73583984 C56.62169922 16.57888672 56.61009766 17.42193359 56.59814453 18.29052734 C57.859039 18.28830673 59.11993347 18.28608612 60.41903687 18.28379822 C72.27962611 18.26356011 84.14021187 18.24855196 96.00081444 18.23871517 C102.09902031 18.23348806 108.19721228 18.22639349 114.29541016 18.21508789 C120.17627729 18.20425297 126.05713102 18.19824921 131.93800735 18.1956501 C134.18597245 18.19379695 136.43393679 18.19017843 138.68189621 18.18479729 C141.82115028 18.17757886 144.96034839 18.17653675 148.09960938 18.17700195 C149.03684341 18.17340668 149.97407745 18.1698114 150.93971252 18.16610718 C152.21858086 18.16816917 152.21858086 18.16816917 153.52328491 18.17027283 C154.26625006 18.16935103 155.0092152 18.16842924 155.77469444 18.16747952 C157.59814453 18.29052734 157.59814453 18.29052734 159.59814453 19.29052734 C159.59814453 26.88052734 159.59814453 34.47052734 159.59814453 42.29052734 C161.24814453 42.62052734 162.89814453 42.95052734 164.59814453 43.29052734 C164.92814453 43.62052734 165.25814453 43.95052734 165.59814453 44.29052734 C165.50851391 45.9819439 165.35236777 47.67012336 165.16064453 49.35302734 C165.05880859 50.27212891 164.95697266 51.19123047 164.85205078 52.13818359 C164.76826172 52.84845703 164.68447266 53.55873047 164.59814453 54.29052734 C165.45279297 54.35111328 166.30744141 54.41169922 167.18798828 54.47412109 C168.29271484 54.55791016 169.39744141 54.64169922 170.53564453 54.72802734 C171.63779297 54.80923828 172.73994141 54.89044922 173.87548828 54.97412109 C176.59814453 55.29052734 176.59814453 55.29052734 177.59814453 56.29052734 C177.86358871 61.46989963 177.18592105 66.22207195 176.08520508 71.2578125 C175.92421326 72.0213353 175.76322144 72.78485809 175.59735107 73.57151794 C175.06715441 76.0758267 174.52647735 78.57772751 173.98486328 81.07958984 C173.61054361 82.82872905 173.23659202 84.57794707 172.86299133 86.32723999 C172.08004502 89.98467314 171.29172538 93.64089723 170.49975586 97.29638672 C169.48655408 101.97574968 168.48824762 106.65814698 167.49411297 111.34159279 C166.72593319 114.95126393 165.94916184 118.55904529 165.16987038 122.16633224 C164.79827856 123.89206082 164.42951557 125.61840108 164.06366539 127.34535599 C163.55101933 129.75958641 163.02666702 132.17098705 162.49926758 134.58203125 C162.27700249 135.64663322 162.27700249 135.64663322 162.05024719 136.73274231 C161.14960922 140.78092911 160.19970998 144.0365858 157.59814453 147.29052734 C154.64489746 147.91414642 154.64489746 147.91414642 150.95556641 147.9119873 C150.27725014 147.91837613 149.59893387 147.92476495 148.90006256 147.93134737 C146.62174385 147.94663714 144.34515329 147.92611275 142.06689453 147.90576172 C140.43586652 147.90926177 138.80484191 147.91491903 137.17382812 147.9225769 C132.7398357 147.93685149 128.30646144 147.91973756 123.87252808 147.89629173 C119.23744916 147.87621966 114.60239684 147.88206038 109.96728516 147.88439941 C102.18267592 147.8843458 94.39830909 147.86456529 86.61376953 147.83251953 C77.60745233 147.79562496 68.60145279 147.78684354 59.59506989 147.79381704 C50.93939412 147.80011733 42.28382756 147.78937656 33.62817383 147.76985168 C29.94082079 147.76166643 26.25352348 147.7589702 22.56616211 147.76054382 C18.22572281 147.76142131 13.88558645 147.74724347 9.54522705 147.72131729 C7.95006783 147.71414117 6.35487642 147.7120788 4.75970459 147.71543503 C2.58637945 147.71913617 0.41394516 147.7044515 -1.75927734 147.68493652 C-3.58549622 147.67934345 -3.58549622 147.67934345 -5.4486084 147.67363739 C-8.40185547 147.29052734 -8.40185547 147.29052734 -10.29320717 146.10859394 C-11.83050414 143.58758862 -11.77944629 141.75504529 -11.7828064 138.80705261 C-11.79126587 137.66727463 -11.79972534 136.52749664 -11.80844116 135.35317993 C-11.80236847 134.10169159 -11.79629578 132.85020325 -11.79003906 131.56079102 C-11.79529602 130.2435051 -11.80055298 128.92621918 -11.80596924 127.5690155 C-11.81966209 123.95311917 -11.81433517 120.33747925 -11.80483198 116.72157836 C-11.79724077 112.93671839 -11.80427993 109.15188048 -11.80899048 105.36701965 C-11.81445162 99.00741637 -11.80724917 92.64791751 -11.79296875 86.28833008 C-11.77666252 78.94187596 -11.78191443 71.59567188 -11.79844797 64.24922389 C-11.81207781 57.93997061 -11.81397455 51.63079246 -11.80613196 45.32152921 C-11.80146094 41.55426363 -11.80081436 37.78711539 -11.81074142 34.01985741 C-11.81942993 30.47474968 -11.81335515 26.9299628 -11.79605865 23.3848896 C-11.7902207 21.46808433 -11.79909482 19.55125182 -11.80844116 17.63446045 C-11.72937301 6.9022294 -11.72937301 6.9022294 -8.40185547 2.29052734 C-5.05045023 0.05625718 -3.91910104 0.03070385 0 0 Z M-3.40185547 7.29052734 C-4.53974281 9.56630203 -4.5252761 10.80086159 -4.52210999 13.3274231 C-4.52348465 14.17158783 -4.52485931 15.01575256 -4.52627563 15.88549805 C-4.52268036 16.81338135 -4.51908508 17.74126465 -4.51538086 18.69726562 C-4.51552689 19.67291473 -4.51567291 20.64856384 -4.51582336 21.65377808 C-4.51512482 24.88948769 -4.50733513 28.12514025 -4.49951172 31.36083984 C-4.49764733 33.60000578 -4.49622353 35.83917213 -4.495224 38.07833862 C-4.49140045 43.98025635 -4.48157154 49.88214959 -4.47052002 55.78405762 C-4.46030241 61.8031379 -4.45572563 67.82222214 -4.45068359 73.84130859 C-4.43994914 85.65772562 -4.42287465 97.47412445 -4.40185547 109.29052734 C3.73836438 93.78129858 2.08115252 74.51039453 1.84814453 57.60302734 C1.82803005 55.0398904 1.80978812 52.47673806 1.79345703 49.91357422 C1.74989824 43.70554916 1.68338582 37.49811289 1.59814453 31.29052734 C20.35613951 31.26719947 39.11413156 31.24954872 57.87213802 31.23871517 C66.58118613 31.23355198 75.29022524 31.22650884 83.99926758 31.21508789 C91.58728194 31.20514177 99.17528979 31.19867409 106.76331049 31.19643885 C110.78361572 31.19513162 114.80390231 31.192045 118.82420158 31.18479729 C122.60388437 31.1780382 126.38354074 31.17591015 130.16322899 31.17741966 C131.55444736 31.17714328 132.94566656 31.1751375 134.33687973 31.17132187 C136.22827779 31.16638643 138.11968985 31.16812937 140.01109314 31.17027283 C141.07207686 31.16935103 142.13306059 31.16842924 143.22619534 31.16747952 C145.59814453 31.29052734 145.59814453 31.29052734 146.59814453 32.29052734 C146.83101461 33.97236682 147.01078619 35.66176894 147.16064453 37.35302734 C147.24443359 38.27212891 147.32822266 39.19123047 147.41455078 40.13818359 C147.47513672 40.84845703 147.53572266 41.55873047 147.59814453 42.29052734 C149.24814453 42.29052734 150.89814453 42.29052734 152.59814453 42.29052734 C152.59814453 36.68052734 152.59814453 31.07052734 152.59814453 25.29052734 C150.70347191 25.27506615 150.70347191 25.27506615 148.77052307 25.2592926 C136.89485509 25.16174076 125.01924164 25.05902447 113.14366245 24.95118809 C107.03760693 24.89590968 100.93154666 24.84248196 94.82543945 24.79321289 C88.93805047 24.74564171 83.05072181 24.6933018 77.16340446 24.63758659 C74.91183909 24.6171301 72.66025715 24.5984226 70.4086628 24.58145332 C67.2667654 24.557482 64.12498321 24.52741787 60.9831543 24.49584961 C60.04232498 24.49009415 59.10149567 24.48433868 58.13215637 24.47840881 C51.71219669 24.40457951 51.71219669 24.40457951 50.59814453 23.29052734 C50.32815552 20.08065804 50.15203016 16.87821875 49.99267578 13.66162109 C50.10108934 10.18108457 50.10108934 10.18108457 48.59814453 7.29052734 C46.97139675 7.19712301 45.34060402 7.17307563 43.71118164 7.17700195 C42.14967628 7.17711525 42.14967628 7.17711525 40.55662537 7.17723083 C38.85821251 7.18497276 38.85821251 7.18497276 37.12548828 7.19287109 C35.97270889 7.19428604 34.8199295 7.19570099 33.63221741 7.19715881 C29.9333339 7.20277729 26.23450989 7.21533293 22.53564453 7.22802734 C20.03499436 7.23303996 17.53434325 7.23760328 15.03369141 7.24169922 C8.88848865 7.25275272 2.74332084 7.26950882 -3.40185547 7.29052734 Z M8.59814453 37.29052734 C8.59814453 43.23052734 8.59814453 49.17052734 8.59814453 55.29052734 C11.23814453 55.29052734 13.87814453 55.29052734 16.59814453 55.29052734 C17.10374361 53.85498709 17.60241943 52.41700715 18.09814453 50.97802734 C18.37658203 50.17751953 18.65501953 49.37701172 18.94189453 48.55224609 C19.73747561 46.20283313 19.73747561 46.20283313 19.59814453 43.29052734 C79.49314453 42.79552734 79.49314453 42.79552734 140.59814453 42.29052734 C140.59814453 40.64052734 140.59814453 38.99052734 140.59814453 37.29052734 C97.03814453 37.29052734 53.47814453 37.29052734 8.59814453 37.29052734 Z M25.59814453 49.29052734 C25.26814453 51.27052734 24.93814453 53.25052734 24.59814453 55.29052734 C68.15814453 55.29052734 111.71814453 55.29052734 156.59814453 55.29052734 C156.92814453 53.31052734 157.25814453 51.33052734 157.59814453 49.29052734 C114.03814453 49.29052734 70.47814453 49.29052734 25.59814453 49.29052734 Z M13.59814453 61.29052734 C9.00243526 81.08214217 9.00243526 81.08214217 4.60595703 100.91552734 C4.25245682 102.55122681 4.25245682 102.55122681 3.89181519 104.2199707 C3.40889079 106.45699569 2.92686851 108.69421563 2.44580078 110.93164062 C1.70528611 114.37353279 0.96043391 117.81446935 0.21533203 121.25537109 C-0.2588797 123.45453522 -0.73284807 125.65375184 -1.20654297 127.85302734 C-1.42833221 128.8767041 -1.65012146 129.90038086 -1.87863159 130.95507812 C-2.07949371 131.89206543 -2.28035583 132.82905273 -2.48730469 133.79443359 C-2.75327957 135.02915405 -2.75327957 135.02915405 -3.02462769 136.28881836 C-3.46358648 138.27860411 -3.46358648 138.27860411 -3.40185547 140.29052734 C48.40814453 140.29052734 100.21814453 140.29052734 153.59814453 140.29052734 C159.84141328 112.23320334 159.84141328 112.23320334 166.046875 84.16748047 C166.42784259 82.43844777 166.80973785 80.7096193 167.19238281 78.98095703 C167.76712147 76.38405938 168.33920212 73.78658953 168.91064453 71.18896484 C169.08241211 70.41539642 169.25417969 69.641828 169.43115234 68.84481812 C170.29251525 65.10288802 170.29251525 65.10288802 170.59814453 61.29052734 C118.78814453 61.29052734 66.97814453 61.29052734 13.59814453 61.29052734 Z " fill="#0976fc" transform="translate(159.40185546875,180.70947265625)"/>
<path d="M0 0 C7.88359592 -0.10141744 15.76702362 -0.17147331 23.65112305 -0.21972656 C26.33327823 -0.23758325 29.0150546 -0.26541436 31.69702148 -0.30175781 C35.55203066 -0.35027542 39.40645998 -0.37296994 43.26171875 -0.390625 C44.46084396 -0.41127014 45.65996918 -0.43191528 46.89543152 -0.45318604 C55.22465455 -0.4554313 55.22465455 -0.4554313 59.23364258 1.89941406 C62.19921153 5.42612523 62.11091148 7.57432084 62.0625 12.125 C62.05347656 13.22070312 62.04445312 14.31640625 62.03515625 15.4453125 C62.02355469 16.28835937 62.01195312 17.13140625 62 18 C63.26089447 17.99777939 64.52178894 17.99555878 65.82089233 17.99327087 C77.68148158 17.97303277 89.54206734 17.95802462 101.40266991 17.94818783 C107.50087578 17.94296071 113.59906775 17.93586614 119.69726562 17.92456055 C125.57813275 17.91372562 131.45898649 17.90772187 137.33986282 17.90512276 C139.58782792 17.90326961 141.83579226 17.89965108 144.08375168 17.89426994 C147.22300575 17.88705151 150.36220386 17.8860094 153.50146484 17.88647461 C154.43869888 17.88287933 155.37593292 17.87928406 156.34156799 17.87557983 C157.62043633 17.87764183 157.62043633 17.87764183 158.92514038 17.87974548 C159.66810553 17.87882369 160.41107067 17.8779019 161.17654991 17.87695217 C163 18 163 18 165 19 C165 26.59 165 34.18 165 42 C166.65 42.33 168.3 42.66 170 43 C170.33 43.33 170.66 43.66 171 44 C170.91062197 45.52519276 170.75462854 47.04681929 170.5625 48.5625 C170.46066406 49.38878906 170.35882813 50.21507812 170.25390625 51.06640625 C170.17011719 51.70449219 170.08632813 52.34257812 170 53 C169.67 53 169.34 53 169 53 C168.67 50.03 168.34 47.06 168 44 C166.68 43.67 165.36 43.34 164 43 C163.93941406 41.92621094 163.87882813 40.85242188 163.81640625 39.74609375 C163.73192349 38.30988685 163.64727946 36.87368942 163.5625 35.4375 C163.52318359 34.73302734 163.48386719 34.02855469 163.44335938 33.30273438 C163.38051758 32.25375977 163.38051758 32.25375977 163.31640625 31.18359375 C163.27974854 30.54993896 163.24309082 29.91628418 163.20532227 29.26342773 C162.92401179 26.16232265 162.44036322 23.08254255 162 20 C128.67 20 95.34 20 61 20 C60.67 20.66 60.34 21.32 60 22 C63.42589799 23.71294899 67.35958214 23.18119745 71.13134766 23.20532227 C72.07773605 23.21522186 73.02412445 23.22512146 73.99919128 23.23532104 C77.13745596 23.26699022 80.27573579 23.29171488 83.4140625 23.31640625 C85.58597209 23.3369711 87.75787764 23.35796744 89.92977905 23.37937927 C95.65410085 23.43464839 101.37845905 23.48403631 107.10284424 23.53222656 C112.94099173 23.58240628 118.77908617 23.63811074 124.6171875 23.69335938 C136.07807971 23.80100014 147.53901793 23.90243194 159 24 C159 29.61 159 35.22 159 41 C158.67 41 158.34 41 158 41 C158 35.72 158 30.44 158 25 C156.10865829 25.00666183 156.10865829 25.00666183 154.17910767 25.01345825 C142.31852826 25.05393444 130.4579628 25.08395072 118.59733009 25.10362434 C112.49910233 25.11407861 106.40093014 25.12826772 100.30273438 25.15087891 C94.42186306 25.17254877 88.54104533 25.18455623 82.66013718 25.18975449 C80.41216564 25.1934608 78.16419715 25.20069788 75.91624832 25.21146011 C72.77694521 25.2258972 69.63786591 25.22798121 66.49853516 25.22705078 C65.0926841 25.23783661 65.0926841 25.23783661 63.65843201 25.24884033 C62.37956367 25.24471634 62.37956367 25.24471634 61.07485962 25.24050903 C60.33189447 25.24235262 59.58892933 25.24419621 58.82345009 25.24609566 C57 25 57 25 55 23 C54.505 15.575 54.505 15.575 54 8 C36.84 7.67 19.68 7.34 2 7 C2 6.67 2 6.34 2 6 C19.82 6 37.64 6 56 6 C56.66 7.65 57.32 9.3 58 11 C58.33 9.02 58.66 7.04 59 5 C55.34828232 2.50365579 52.88772754 1.61929423 48.4753418 1.56762695 C46.85422737 1.53793571 46.85422737 1.53793571 45.20036316 1.50764465 C44.0449855 1.50125473 42.88960785 1.49486481 41.69921875 1.48828125 C40.50770706 1.47033005 39.31619537 1.45237885 38.08857727 1.43388367 C34.28825402 1.37976309 30.48805652 1.34587824 26.6875 1.3125 C24.10870646 1.2793286 21.52992951 1.24483911 18.95117188 1.20898438 C12.63422733 1.12403537 6.31726656 1.05569264 0 1 C0 0.67 0 0.34 0 0 Z " fill="#007aff" transform="translate(154,181)"/>
<path d="M0 0 C3.3 0 6.6 0 10 0 C10.33 1.65 10.66 3.3 11 5 C12.2375 4.7525 13.475 4.505 14.75 4.25 C18.03161925 3.83615459 18.68060211 3.7896648 21.5625 5.6875 C23 8 23 8 22.75 10 C22.5025 10.66 22.255 11.32 22 12 C22 13.32 22 14.64 22 16 C23.65 16.33 25.3 16.66 27 17 C27 19.97 27 22.94 27 26 C25.02 26.66 23.04 27.32 21 28 C21.350625 28.5775 21.70125 29.155 22.0625 29.75 C23 32 23 32 22.875 34 C21.73959163 36.59521914 20.08514322 38.11664483 18 40 C17.401875 39.67 16.80375 39.34 16.1875 39 C13.94613529 37.79212012 13.94613529 37.79212012 11 38 C10.67 39.65 10.34 41.3 10 43 C6.7 43 3.4 43 0 43 C-0.495 40.525 -0.495 40.525 -1 38 C-1.86625 38.2475 -1.86625 38.2475 -2.75 38.5 C-5 39 -5 39 -9 39 C-11.3125 37.25 -11.3125 37.25 -13 35 C-12.75 33 -12.75 33 -12 31 C-12 29.68 -12 28.36 -12 27 C-13.65 26.67 -15.3 26.34 -17 26 C-17 23.03 -17 20.06 -17 17 C-15.02 17 -13.04 17 -11 17 C-11.6735698 13.42189816 -11.6735698 13.42189816 -12.875 10 C-12.91625 9.34 -12.9575 8.68 -13 8 C-10.5625 5.25 -10.5625 5.25 -8 3 C-7.4225 3.309375 -6.845 3.61875 -6.25 3.9375 C-4.15705816 4.92583364 -2.25464725 5.5168613 0 6 C0 4.02 0 2.04 0 0 Z M3 3 C2.34 4.65 1.68 6.3 1 8 C-2.34252724 8.07427838 -4.8035914 8.06546953 -8 7 C-8.85755101 9.57265303 -9.02914977 10.88048595 -8.375 13.5625 C-8 16 -8 16 -9.25 17.75 C-11 19 -11 19 -14 20 C-14 21.32 -14 22.64 -14 24 C-13.195625 24.226875 -12.39125 24.45375 -11.5625 24.6875 C-9 26 -9 26 -8.125 28.375 C-8.00635513 30.86654217 -8.21607764 32.64823293 -9 35 C-7.68 35 -6.36 35 -5 35 C-2.66666667 35 -0.33333333 35 2 35 C2.33 36.98 2.66 38.96 3 41 C4.32 41 5.64 41 7 41 C7.33 39.02 7.66 37.04 8 35 C14.625 34.875 14.625 34.875 18 36 C19.26900206 33.0314418 19.26900206 33.0314418 18.375 30 C18 27 18 27 19.25 25.1875 C21 24 21 24 24 23 C24 22.01 24 21.02 24 20 C23.195625 19.79375 22.39125 19.5875 21.5625 19.375 C20.716875 18.92125 19.87125 18.4675 19 18 C18.24936281 15.22841653 18 12.85785481 18 10 C18.66 9.67 19.32 9.34 20 9 C19.01 8.34 18.02 7.68 17 7 C16.01 7.495 16.01 7.495 15 8 C13.00039988 8.039992 10.99952758 8.04346799 9 8 C8.34 6.35 7.68 4.7 7 3 C5.68 3 4.36 3 3 3 Z " fill="#d6171c" transform="translate(195,269)"/>
<path d="M0 0 C1.65 0 3.3 0 5 0 C6.98 4.95 8.96 9.9 11 15 C12.65 10.05 14.3 5.1 16 0 C17.98 0 19.96 0 22 0 C23.98 5.94 25.96 11.88 28 18 C26.35 18 24.7 18 23 18 C22.67 17.34 22.34 16.68 22 16 C18.97065509 15.34227572 18.97065509 15.34227572 16 15 C15.67 15.99 15.34 16.98 15 18 C12.03 18 9.06 18 6 18 C5.67 17.34 5.34 16.68 5 16 C1.97065509 15.34227572 1.97065509 15.34227572 -1 15 C-1 15.99 -1 16.98 -1 18 C-2.65 18 -4.3 18 -6 18 C-4.41039668 11.76559832 -2.72399099 5.83712355 0 0 Z M2 6 C1.67 7.65 1.34 9.3 1 11 C1.99 10.67 2.98 10.34 4 10 C3.34 8.68 2.68 7.36 2 6 Z M19 7 C18.67 8.32 18.34 9.64 18 11 C18.99 10.67 19.98 10.34 21 10 C20.34 9.01 19.68 8.02 19 7 Z " fill="#0976fc" transform="translate(256,293)"/>
<path d="M0 0 C3.40969002 0.46233085 5.40838028 0.22869327 8.6875 -0.5 C11.6875 0.5 11.6875 0.5 12.6875 2.5 C12.75866382 4.87402501 12.77159085 7.25000677 12.75 9.625 C12.74097656 10.90632813 12.73195312 12.18765625 12.72265625 13.5078125 C12.71105469 14.49523437 12.69945312 15.48265625 12.6875 16.5 C11.0375 16.5 9.3875 16.5 7.6875 16.5 C7.6875 12.54 7.6875 8.58 7.6875 4.5 C6.6975 4.83 5.7075 5.16 4.6875 5.5 C4.3575 9.13 4.0275 12.76 3.6875 16.5 C2.0375 16.5 0.3875 16.5 -1.3125 16.5 C-1.6425 12.87 -1.9725 9.24 -2.3125 5.5 C-3.3025 5.17 -4.2925 4.84 -5.3125 4.5 C-5.6425 8.46 -5.9725 12.42 -6.3125 16.5 C-7.9625 16.5 -9.6125 16.5 -11.3125 16.5 C-11.3125 11.22 -11.3125 5.94 -11.3125 0.5 C-9.3325 0.5 -7.3525 0.5 -5.3125 0.5 C-3.3125 -0.5 -3.3125 -0.5 0 0 Z " fill="#ffffff" transform="translate(174.3125,399.5)"/>
<path d="M0 0 C0.886875 -0.20625 1.77375 -0.4125 2.6875 -0.625 C5 -1 5 -1 7.12890625 0.02734375 C9 2 9 2 9.390625 5.35546875 C9.32101562 7.25232422 9.32101562 7.25232422 9.25 9.1875 C9.21390625 10.45980469 9.1778125 11.73210937 9.140625 13.04296875 C9.07101562 14.50669922 9.07101562 14.50669922 9 16 C7.35 16 5.7 16 4 16 C4 12.04 4 8.08 4 4 C3.01 4.33 2.02 4.66 1 5 C0.67 8.63 0.34 12.26 0 16 C-1.65 16 -3.3 16 -5 16 C-5.33 12.04 -5.66 8.08 -6 4 C-6.99 4.33 -7.98 4.66 -9 5 C-9.33 8.63 -9.66 12.26 -10 16 C-11.65 16 -13.3 16 -15 16 C-15 10.72 -15 5.44 -15 0 C-9.60454004 -0.85191473 -5.43577922 -0.82049498 0 0 Z " fill="#ffffff" transform="translate(312,359)"/>
<path d="M0 0 C1.0725 -0.185625 2.145 -0.37125 3.25 -0.5625 C6 -1 6 -1 9 1 C10.09506492 4.28519475 10.09960608 6.73663415 10.0625 10.1875 C10.05347656 11.27417969 10.04445313 12.36085938 10.03515625 13.48046875 C10.02355469 14.31191406 10.01195312 15.14335937 10 16 C8.35 16 6.7 16 5 16 C4.67 12.37 4.34 8.74 4 5 C3.01 5 2.02 5 1 5 C0.67 8.63 0.34 12.26 0 16 C-1.65 16 -3.3 16 -5 16 C-5 12.04 -5 8.08 -5 4 C-5.99 4.33 -6.98 4.66 -8 5 C-8.66 8.63 -9.32 12.26 -10 16 C-11.32 16 -12.64 16 -14 16 C-14 10.72 -14 5.44 -14 0 C-8.26340818 -0.81951312 -5.41363535 -0.78743787 0 0 Z " fill="#ffffff" transform="translate(289,400)"/>
<path d="M0 0 C13.37368421 -0.49532164 13.37368421 -0.49532164 16.390625 1.890625 C19.76424614 6.31236144 19.67900275 10.59344061 19 16 C17.375 19.125 17.375 19.125 14 21 C9.25058413 21.40340452 4.7847853 21.2235881 0 21 C0 14.07 0 7.14 0 0 Z M5 4 C5 8.29 5 12.58 5 17 C10.50694157 17.51449576 10.50694157 17.51449576 12.875 15.875 C14.53577671 13.10703881 14.38805206 11.16909182 14 8 C13.02896212 5.53813421 13.02896212 5.53813421 11 4 C9.02 4 7.04 4 5 4 Z " fill="#ffffff" transform="translate(222,354)"/>
<path d="M0 0 C2.31 0 4.62 0 7 0 C10.465 10.395 10.465 10.395 14 21 C12.02 21 10.04 21 8 21 C7.67 19.68 7.34 18.36 7 17 C4.36 17 1.72 17 -1 17 C-1.33 18.32 -1.66 19.64 -2 21 C-3.65 21 -5.3 21 -7 21 C-5.180206 13.74839665 -2.93841629 6.87619244 0 0 Z M3 7 C2.34 8.65 1.68 10.3 1 12 C2.32 12 3.64 12 5 12 C4.67 10.35 4.34 8.7 4 7 C3.67 7 3.34 7 3 7 Z " fill="#ffffff" transform="translate(99,354)"/>
<path d="M0 0 C2.31 0 4.62 0 7 0 C10.465 10.395 10.465 10.395 14 21 C12.02 21 10.04 21 8 21 C7.67 20.01 7.34 19.02 7 18 C4.69 18 2.38 18 0 18 C-0.33 18.99 -0.66 19.98 -1 21 C-2.98 21 -4.96 21 -7 21 C-4.96192707 13.8821847 -2.59655258 6.93292719 0 0 Z M3 6 C2.67 7.98 2.34 9.96 2 12 C2.99 12 3.98 12 5 12 C4.67 10.02 4.34 8.04 4 6 C3.67 6 3.34 6 3 6 Z " fill="#ffffff" transform="translate(62,354)"/>
<path d="M0 0 C2.45761961 3.68642941 2.80591396 6.72117848 2 11 C-0.125 14.0625 -0.125 14.0625 -3 16 C-6.3125 15.8125 -6.3125 15.8125 -9 15 C-9 17.31 -9 19.62 -9 22 C-10.65 22 -12.3 22 -14 22 C-14 14.41 -14 6.82 -14 -1 C-4.57425743 -2.17821782 -4.57425743 -2.17821782 0 0 Z M-8 3 C-9.35618499 4.12534105 -9.35618499 4.12534105 -9.0625 7.0625 C-9.041875 8.031875 -9.02125 9.00125 -9 10 C-7.34385343 10.38218767 -5.67542976 10.71395102 -4 11 C-3.67 10.67 -3.34 10.34 -3 10 C-3.28730055 7.66055264 -3.61936779 5.3260857 -4 3 C-5.32 3 -6.64 3 -8 3 Z " fill="#ffffff" transform="translate(205,401)"/>
<path d="M0 0 C1.65 0 3.3 0 5 0 C5 7.59 5 15.18 5 23 C-6 24 -6 24 -10 21 C-11.41821812 16.86159303 -11.40159299 13.07091465 -9.875 9 C-7.58747126 6.55996934 -6.30988188 6.16549409 -3 6 C-2.01 6.33 -1.02 6.66 0 7 C0 4.69 0 2.38 0 0 Z M-4 11 C-4.66 11.66 -5.32 12.32 -6 13 C-5.67801034 16.09926819 -5.67801034 16.09926819 -5 19 C-3.35 18.67 -1.7 18.34 0 18 C0 16.02 0 14.04 0 12 C-1.89179203 11.3185177 -1.89179203 11.3185177 -4 11 Z " fill="#ffffff" transform="translate(206,352)"/>
<path d="M0 0 C3.27621422 2.11133805 4.41761243 3.17029356 5.8125 6.8125 C6.46174211 11.67780814 6.56318771 15.47794408 4.125 19.8125 C0.23412237 23.17758336 -2.59719295 24.02857402 -7.6875 23.75 C-12.22115545 23.13040042 -14.34182923 21.45851568 -17.1875 17.8125 C-19.04712086 14.09325827 -18.76148707 9.86229769 -18.1875 5.8125 C-13.30821277 -0.69321631 -7.75088606 -2.887585 0 0 Z M-14.1875 5.8125 C-15.73774464 8.91298928 -15.47742015 11.39144218 -15.1875 14.8125 C-13.64590162 17.76723023 -12.50662036 19.34158229 -9.31640625 20.48046875 C-5.39819776 21.22855771 -3.72701646 21.14539313 -0.25 19 C2.86003882 15.70147398 3.22246855 13.34595883 3.15625 8.78515625 C2.93928328 6.53310247 2.93928328 6.53310247 0.6875 4.375 C-5.54265589 0.98904571 -8.64606108 1.30202646 -14.1875 5.8125 Z " fill="#CF191B" transform="translate(206.1875,279.1875)"/>
<path d="M0 0 C1.20970459 0.00523682 2.41940918 0.01047363 3.66577148 0.01586914 C4.97094727 0.0190918 6.27612305 0.02231445 7.62084961 0.02563477 C9.00952213 0.03399138 10.39819401 0.04245634 11.78686523 0.05102539 C13.17944179 0.05603873 14.57202005 0.06060193 15.96459961 0.06469727 C19.38456394 0.07653105 22.80444367 0.09301659 26.22436523 0.11352539 C26.84936523 2.48852539 26.84936523 2.48852539 27.22436523 5.11352539 C25.22436523 7.11352539 25.22436523 7.11352539 22.44287109 7.35644531 C21.2866626 7.35233643 20.1304541 7.34822754 18.93920898 7.34399414 C17.68688477 7.34206055 16.43456055 7.34012695 15.14428711 7.33813477 C13.17298828 7.31976563 13.17298828 7.31976563 11.16186523 7.30102539 C9.84379883 7.30038086 8.52573242 7.29973633 7.16772461 7.29907227 C-2.63554354 7.25361662 -2.63554354 7.25361662 -3.77563477 6.11352539 C-3.90063477 3.61352539 -3.90063477 3.61352539 -3.77563477 1.11352539 C-2.77563477 0.11352539 -2.77563477 0.11352539 0 0 Z " fill="#0976fc" transform="translate(176.775634765625,192.886474609375)"/>
<path d="M0 0 C10.7 0 10.7 0 14 2 C16.61234256 5.35872614 16.43251303 8.89112621 16 13 C14.75 15.9375 14.75 15.9375 12 18 C7.90654111 18.42458749 4.13599589 18.22478239 0 18 C0 12.06 0 6.12 0 0 Z M5 4 C5 7.63 5 11.26 5 15 C9.63019987 14.5547002 9.63019987 14.5547002 11 13 C11.33338596 9.54187831 11.33338596 9.54187831 11 6 C8.18490007 3.7226499 8.18490007 3.7226499 5 4 Z " fill="#0976fc" transform="translate(285,293)"/>
<path d="M0 0 C2 2 2 2 2.125 5.125 C2.08375 6.07375 2.0425 7.0225 2 8 C-1.3 8 -4.6 8 -8 8 C-7.67 8.66 -7.34 9.32 -7 10 C-6.071875 9.79375 -5.14375 9.5875 -4.1875 9.375 C-1 9 -1 9 2 11 C0.25 14.875 0.25 14.875 -2 16 C-9.12457912 16.46464646 -9.12457912 16.46464646 -12 14 C-13.6430607 10.23112366 -14.29414474 7.12755483 -13.25 3.125 C-11.87639057 0.78986396 -10.77226291 -0.66903018 -8.25 -1.75 C-5.09371959 -2.10069782 -2.90646006 -1.20049437 0 0 Z M-7 3 C-7.33 3.66 -7.66 4.32 -8 5 C-6.35 5 -4.7 5 -3 5 C-3 4.34 -3 3.68 -3 3 C-4.32 3 -5.64 3 -7 3 Z " fill="#ffffff" transform="translate(270,401)"/>
<path d="M0 0 C1 1 1 1 1.09765625 3.28515625 C1.08605469 4.20167969 1.07445312 5.11820312 1.0625 6.0625 C1.05347656 6.98160156 1.04445313 7.90070313 1.03515625 8.84765625 C1.02355469 9.55792969 1.01195312 10.26820313 1 11 C1.66 11 2.32 11 3 11 C2.67 12.65 2.34 14.3 2 16 C1.319375 15.814375 0.63875 15.62875 -0.0625 15.4375 C-3.11860568 14.82558515 -3.11860568 14.82558515 -6.625 15.625 C-10 16 -10 16 -12 14.9375 C-13 13 -13 13 -12.9375 9.9375 C-12 7 -12 7 -10.1875 5.625 C-8 5 -8 5 -4 5 C-4 4.34 -4 3.68 -4 3 C-6.31 3.66 -8.62 4.32 -11 5 C-11.33 3.35 -11.66 1.7 -12 0 C-7.23053607 -2.04405597 -4.75643523 -2.10168068 0 0 Z M-5 8 C-5.99 8.33 -6.98 8.66 -8 9 C-7.67 9.99 -7.34 10.98 -7 12 C-6.01 11.67 -5.02 11.34 -4 11 C-4.33 10.01 -4.66 9.02 -5 8 Z " fill="#ffffff" transform="translate(384,360)"/>
<path d="M0 0 C2 2 2 2 2.125 5.125 C2.08375 6.07375 2.0425 7.0225 2 8 C-1.3 8 -4.6 8 -8 8 C-7.67 8.66 -7.34 9.32 -7 10 C-6.071875 9.79375 -5.14375 9.5875 -4.1875 9.375 C-1 9 -1 9 2 11 C0.25 14.875 0.25 14.875 -2 16 C-5.71288464 16.41254274 -7.54621504 16.26218686 -10.8125 14.375 C-13.48255035 11.47608819 -13.92011913 9.91416275 -14 6 C-13.07417343 2.86643316 -12.31531305 1.31531305 -10 -1 C-6.26175799 -2.60210372 -3.6418889 -1.50425846 0 0 Z M-7 3 C-7.33 3.66 -7.66 4.32 -8 5 C-6.35 5 -4.7 5 -3 5 C-3 4.34 -3 3.68 -3 3 C-4.32 3 -5.64 3 -7 3 Z " fill="#ffffff" transform="translate(337,360)"/>
<path d="M0 0 C2 2 2 2 2.125 5.625 C2.08375 6.73875 2.0425 7.8525 2 9 C-1.3 9 -4.6 9 -8 9 C-7.67 9.66 -7.34 10.32 -7 11 C-4.47266765 11.65555119 -4.47266765 11.65555119 -2 12 C-2 11.34 -2 10.68 -2 10 C-0.68 10.66 0.64 11.32 2 12 C1.4375 13.9375 1.4375 13.9375 0 16 C-3.95287962 17.11873951 -6.10299979 17.4095001 -9.875 15.6875 C-12 14 -12 14 -13 12 C-13.58203713 4.78273959 -13.58203713 4.78273959 -11.1875 1.5625 C-7.21851436 -1.27248974 -4.61527795 -1.08017143 0 0 Z M-7 4 C-7.33 4.66 -7.66 5.32 -8 6 C-6.02 6 -4.04 6 -2 6 C-2.33 5.34 -2.66 4.68 -3 4 C-4.32 4 -5.64 4 -7 4 Z " fill="#ffffff" transform="translate(314,400)"/>
<path d="M0 0 C2.77512209 3.03528978 3.01728325 4.49878574 2.875 8.625 C1.63157895 13.42105263 1.63157895 13.42105263 -1 15 C-4.40333226 15.80442399 -6.92838082 16.31858949 -10.3125 15.3125 C-12.431788 13.66416489 -13.14874336 12.55376992 -14 10 C-14.32140164 6.14318026 -14.3724011 3.16320147 -12 0 C-7.66334295 -2.72589871 -4.580696 -1.95103719 0 0 Z M-7 3 C-7.66 3.66 -8.32 4.32 -9 5 C-8.67801034 8.09926819 -8.67801034 8.09926819 -8 11 C-6.35 11 -4.7 11 -3 11 C-2.3121764 8.64632287 -2.3121764 8.64632287 -2 6 C-2.66 5.01 -3.32 4.02 -4 3 C-4.99 3 -5.98 3 -7 3 Z " fill="#ffffff" transform="translate(235,401)"/>
<path d="M0 0 C2.48076864 2.48076864 2.35091557 3.44218209 2.4375 6.875 C2.35643816 10.61465304 2.29689754 11.63324421 -0.125 14.625 C-3.52747146 16.25226896 -5.2814015 16.69723722 -9 16 C-11.875 13.9375 -11.875 13.9375 -14 11 C-14.50445037 6.8923327 -14.61279201 3.35930401 -12 0 C-7.64217816 -2.7392023 -4.64744514 -1.75375288 0 0 Z M-8 3 C-8.33 5.31 -8.66 7.62 -9 10 C-7.34385343 10.38218767 -5.67542976 10.71395102 -4 11 C-2.64381501 9.87465895 -2.64381501 9.87465895 -2.9375 6.9375 C-2.958125 5.968125 -2.97875 4.99875 -3 4 C-4.65 3.67 -6.3 3.34 -8 3 Z " fill="#ffffff" transform="translate(423,360)"/>
<path d="M0 0 C2.77512209 3.03528978 3.01728325 4.49878574 2.875 8.625 C1.63157895 13.42105263 1.63157895 13.42105263 -1 15 C-4.40333226 15.80442399 -6.92838082 16.31858949 -10.3125 15.3125 C-12.431788 13.66416489 -13.14874336 12.55376992 -14 10 C-14.32140164 6.14318026 -14.3724011 3.16320147 -12 0 C-7.66334295 -2.72589871 -4.580696 -1.95103719 0 0 Z M-7 3 C-7.66 3.66 -8.32 4.32 -9 5 C-8.67801034 8.09926819 -8.67801034 8.09926819 -8 11 C-6.35 11 -4.7 11 -3 11 C-2.3121764 8.64632287 -2.3121764 8.64632287 -2 6 C-2.66 5.01 -3.32 4.02 -4 3 C-4.99 3 -5.98 3 -7 3 Z " fill="#ffffff" transform="translate(257,360)"/>
<path d="M0 0 C2 2 2 2 2.125 5.625 C2.08375 6.73875 2.0425 7.8525 2 9 C-1.3 9 -4.6 9 -8 9 C-7.67 9.66 -7.34 10.32 -7 11 C-4.47266765 11.65555119 -4.47266765 11.65555119 -2 12 C-2 11.34 -2 10.68 -2 10 C-0.68 10.66 0.64 11.32 2 12 C1.4375 13.9375 1.4375 13.9375 0 16 C-3.95287962 17.11873951 -6.10299979 17.4095001 -9.875 15.6875 C-12 14 -12 14 -13 12 C-13.58203713 4.78273959 -13.58203713 4.78273959 -11.1875 1.5625 C-7.21851436 -1.27248974 -4.61527795 -1.08017143 0 0 Z M-7 4 C-7.33 4.66 -7.66 5.32 -8 6 C-6.02 6 -4.04 6 -2 6 C-2.33 5.34 -2.66 4.68 -3 4 C-4.32 4 -5.64 4 -7 4 Z " fill="#ffffff" transform="translate(191,359)"/>
<path d="M0 0 C2 2 2 2 2.1953125 5.2578125 C2.16050781 7.17207031 2.16050781 7.17207031 2.125 9.125 C2.10695313 10.40632813 2.08890625 11.68765625 2.0703125 13.0078125 C2.04710937 13.99523437 2.02390625 14.98265625 2 16 C0.35 16 -1.3 16 -3 16 C-3 12.04 -3 8.08 -3 4 C-4.32 4.33 -5.64 4.66 -7 5 C-7.33 8.63 -7.66 12.26 -8 16 C-9.65 16 -11.3 16 -13 16 C-13 10.72 -13 5.44 -13 0 C-11.02 0 -9.04 0 -7 0 C-4.29393021 -1.35303489 -2.8671629 -0.7884698 0 0 Z " fill="#ffffff" transform="translate(332,400)"/>
<path d="M0 0 C2 2 2 2 2.1953125 5.2578125 C2.16050781 7.17207031 2.16050781 7.17207031 2.125 9.125 C2.10695313 10.40632813 2.08890625 11.68765625 2.0703125 13.0078125 C2.04710937 13.99523437 2.02390625 14.98265625 2 16 C0.35 16 -1.3 16 -3 16 C-3 12.04 -3 8.08 -3 4 C-4.32 4.33 -5.64 4.66 -7 5 C-7.33 8.63 -7.66 12.26 -8 16 C-9.65 16 -11.3 16 -13 16 C-13 10.72 -13 5.44 -13 0 C-11.02 0 -9.04 0 -7 0 C-4.29393021 -1.35303489 -2.8671629 -0.7884698 0 0 Z " fill="#ffffff" transform="translate(441,359)"/>
<path d="M0 0 C0.66 0.99 1.32 1.98 2 3 C-0.64738916 4.4606285 -1.89448334 5 -5 5 C-1.535 6.485 -1.535 6.485 2 8 C2.47840532 13.3820598 2.47840532 13.3820598 0.5 15.9375 C-3.37221296 17.58319051 -5.90361598 16.92498994 -10 16 C-10.66 15.01 -11.32 14.02 -12 13 C-11.01 12.01 -10.02 11.02 -9 10 C-9.66 9.01 -10.32 8.02 -11 7 C-11.4375 4.5 -11.4375 4.5 -11 2 C-7.31423147 -1.2521487 -4.62454887 -1.43874854 0 0 Z M-8 10 C-7.01 10.99 -6.02 11.98 -5 13 C-4.34 12.34 -3.68 11.68 -3 11 C-4.65 10.67 -6.3 10.34 -8 10 Z " fill="#ffffff" transform="translate(162,359)"/>
<path d="M0 0 C0.66 0.99 1.32 1.98 2 3 C-0.64738916 4.4606285 -1.89448334 5 -5 5 C-1.535 6.485 -1.535 6.485 2 8 C2.47840532 13.3820598 2.47840532 13.3820598 0.5 15.9375 C-3.37221296 17.58319051 -5.90361598 16.92498994 -10 16 C-10.66 15.01 -11.32 14.02 -12 13 C-11.01 12.01 -10.02 11.02 -9 10 C-9.66 9.01 -10.32 8.02 -11 7 C-11.4375 4.5 -11.4375 4.5 -11 2 C-7.31423147 -1.2521487 -4.62454887 -1.43874854 0 0 Z M-8 10 C-7.01 10.99 -6.02 11.98 -5 13 C-4.34 12.34 -3.68 11.68 -3 11 C-4.65 10.67 -6.3 10.34 -8 10 Z " fill="#ffffff" transform="translate(139,359)"/>
<path d="M0 0 C1.44207941 2.88415883 1.09394887 5.41721528 1.0625 8.625 C1.05347656 9.81351562 1.04445313 11.00203125 1.03515625 12.2265625 C1.02355469 13.14179688 1.01195312 14.05703125 1 15 C-0.65 15 -2.3 15 -4 15 C-4.33 11.37 -4.66 7.74 -5 4 C-5.99 4 -6.98 4 -8 4 C-8.66 7.63 -9.32 11.26 -10 15 C-11.32 15 -12.64 15 -14 15 C-14 9.72 -14 4.44 -14 -1 C-8.66011194 -1.92067036 -5.07475 -2.35171342 0 0 Z " fill="#ffffff" transform="translate(356,360)"/>
<path d="M0 0 C-0.66 1.32 -1.32 2.64 -2 4 C-3.65 4 -5.3 4 -7 4 C-5.865625 4.4125 -4.73125 4.825 -3.5625 5.25 C0 7 0 7 1.0625 8.9375 C0.98575465 11.47009669 0.38366998 12.88808267 -1 15 C-3.52053595 16.26026798 -4.8542098 15.91874445 -7.625 15.5625 C-8.44226563 15.46066406 -9.25953125 15.35882813 -10.1015625 15.25390625 C-10.72804688 15.17011719 -11.35453125 15.08632813 -12 15 C-12.33 13.68 -12.66 12.36 -13 11 C-12.01 10.34 -11.02 9.68 -10 9 C-7.3125 9.875 -7.3125 9.875 -5 11 C-8.36573933 9.55754029 -10.75010389 7.916532 -13 5 C-13.0625 2.375 -13.0625 2.375 -12 0 C-7.74419357 -2.87892788 -4.60755066 -1.62619435 0 0 Z " fill="#ffffff" transform="translate(126,360)"/>
<path d="M0 0 C1.65 0 3.3 0 5 0 C5.84378975 2.05824429 6.67463622 4.12179786 7.5 6.1875 C7.9640625 7.33605469 8.428125 8.48460937 8.90625 9.66796875 C9.90805652 12.71990077 10.23870804 14.83115072 10 18 C8.68 18 7.36 18 6 18 C5.67 17.34 5.34 16.68 5 16 C1.97065509 15.34227572 1.97065509 15.34227572 -1 15 C-1 15.99 -1 16.98 -1 18 C-2.65 18 -4.3 18 -6 18 C-4.41039668 11.76559832 -2.72399099 5.83712355 0 0 Z M2 6 C1.67 7.65 1.34 9.3 1 11 C1.99 10.67 2.98 10.34 4 10 C3.34 8.68 2.68 7.36 2 6 Z " fill="#DB0E12" transform="translate(256,293)"/>
<path d="M0 0 C0.66 0 1.32 0 2 0 C1.34 1.32 0.68 2.64 0 4 C-52.14 4 -104.28 4 -158 4 C-158 3.67 -158 3.34 -158 3 C-157.19786135 2.99668985 -156.39572269 2.99337971 -155.56927681 2.98996925 C-136.07412183 2.90883784 -116.5790467 2.81677806 -97.08400154 2.71247292 C-87.6564408 2.6622973 -78.22888897 2.61585506 -68.80126953 2.578125 C-60.58657124 2.54523976 -52.37194113 2.50542796 -44.157318 2.45720994 C-39.80555621 2.43191032 -35.45383985 2.4101394 -31.10202408 2.39665604 C-27.00954925 2.38386694 -22.91722996 2.36184706 -18.82484055 2.33261681 C-17.31956916 2.32351625 -15.81427271 2.31784506 -14.30897522 2.31578636 C-12.26023916 2.3124814 -10.21153726 2.29585999 -8.16287231 2.2784729 C-6.44004123 2.27017676 -6.44004123 2.27017676 -4.68240547 2.26171303 C-1.84844887 2.27184963 -1.84844887 2.27184963 0 0 Z " fill="#0976fc" transform="translate(317,324)"/>
<path d="M0 0 C0.33 0.99 0.66 1.98 1 3 C-1.57213134 4.61949011 -2.67669159 5.04408751 -5.75 4.625 C-6.4925 4.41875 -7.235 4.2125 -8 4 C-8 5.98 -8 7.96 -8 10 C-5.36 9.67 -2.72 9.34 0 9 C0.33 9.99 0.66 10.98 1 12 C-1.22386372 14.73706304 -2.4225847 15.88943111 -5.9375 16.5625 C-10.15106301 15.78858026 -11.53448014 14.48073393 -14 11 C-14.79109646 7.23109705 -14.53152532 4.03647437 -12.75 0.5625 C-8.57009641 -3.16955678 -5.00797548 -1.88980207 0 0 Z " fill="#ffffff" transform="translate(276,360)"/>
<path d="M0 0 C1.32 0 2.64 0 4 0 C4.33 3.96 4.66 7.92 5 12 C6.32 12 7.64 12 9 12 C9.33 8.04 9.66 4.08 10 0 C11.32 0 12.64 0 14 0 C14 5.28 14 10.56 14 16 C3.375 17.25 3.375 17.25 0 15 C-0.22137393 12.37302936 -0.28162025 9.99106036 -0.1875 7.375 C-0.17396484 6.66859375 -0.16042969 5.9621875 -0.14648438 5.234375 C-0.1111104 3.48925872 -0.05730221 1.74453392 0 0 Z " fill="#ffffff" transform="translate(279,359)"/>
<path d="M0 0 C1.98 0 3.96 0 6 0 C6.66 2.97 7.32 5.94 8 9 C8.66 9 9.32 9 10 9 C10.66 6.03 11.32 3.06 12 0 C13.98 0 15.96 0 18 0 C17.19110952 2.48039849 16.37808099 4.95930212 15.5625 7.4375 C15.33240234 8.14455078 15.10230469 8.85160156 14.86523438 9.58007812 C13.11328125 14.88671875 13.11328125 14.88671875 12 16 C10.00041636 16.04080783 7.99954746 16.04254356 6 16 C5.18395001 14.0848421 4.37229368 12.16781166 3.5625 10.25 C3.11003906 9.18265625 2.65757812 8.1153125 2.19140625 7.015625 C1.26020447 4.6586159 0.5215928 2.47007165 0 0 Z " fill="#ffffff" transform="translate(238,400)"/>
<path d="M0 0 C8.58 0 17.16 0 26 0 C26 6.27 26 12.54 26 19 C20.72 19 15.44 19 10 19 C10 18.01 10 17.02 10 16 C14.29 16 18.58 16 23 16 C23 11.38 23 6.76 23 2 C16.4 2 9.8 2 3 2 C3 3.32 3 4.64 3 6 C2.01 6 1.02 6 0 6 C0 4.02 0 2.04 0 0 Z " fill="#D41A1F" transform="translate(208,266)"/>
<path d="M0 0 C1.32 0 2.64 0 4 0 C4 1.32 4 2.64 4 4 C5.32 4 6.64 4 8 4 C8 5.32 8 6.64 8 8 C6.68 8 5.36 8 4 8 C4 10.64 4 13.28 4 16 C5.32 16 6.64 16 8 16 C8.33 17.32 8.66 18.64 9 20 C2.375 21.25 2.375 21.25 -1 19 C-1.29296875 16.3984375 -1.29296875 16.3984375 -1.1875 13.375 C-1.16042969 12.37210937 -1.13335937 11.36921875 -1.10546875 10.3359375 C-1.07066406 9.56507813 -1.03585937 8.79421875 -1 8 C-1.99 8 -2.98 8 -4 8 C-4 6.68 -4 5.36 -4 4 C-3.01 4 -2.02 4 -1 4 C-0.67 2.68 -0.34 1.36 0 0 Z " fill="#ffffff" transform="translate(362,355)"/>
<path d="M0 0 C1.32 0 2.64 0 4 0 C4 1.32 4 2.64 4 4 C5.32 4 6.64 4 8 4 C8 5.32 8 6.64 8 8 C6.68 8 5.36 8 4 8 C4 10.64 4 13.28 4 16 C5.32 16 6.64 16 8 16 C8.33 17.32 8.66 18.64 9 20 C2.375 21.25 2.375 21.25 -1 19 C-1.29296875 16.3984375 -1.29296875 16.3984375 -1.1875 13.375 C-1.16042969 12.37210937 -1.13335937 11.36921875 -1.10546875 10.3359375 C-1.07066406 9.56507813 -1.03585937 8.79421875 -1 8 C-1.99 8 -2.98 8 -4 8 C-4 6.68 -4 5.36 -4 4 C-3.01 4 -2.02 4 -1 4 C-0.67 2.68 -0.34 1.36 0 0 Z " fill="#ffffff" transform="translate(391,355)"/>
<path d="M0 0 C1.32 0 2.64 0 4 0 C4 1.32 4 2.64 4 4 C5.65 4 7.3 4 9 4 C9 5.32 9 6.64 9 8 C7.35 8 5.7 8 4 8 C4 10.64 4 13.28 4 16 C5.65 16.33 7.3 16.66 9 17 C9 17.99 9 18.98 9 20 C5.6875 20.6875 5.6875 20.6875 2 21 C0.28125 19.84375 0.28125 19.84375 -1 18 C-1.29296875 15.51953125 -1.29296875 15.51953125 -1.1875 12.8125 C-1.16042969 11.91144531 -1.13335937 11.01039063 -1.10546875 10.08203125 C-1.07066406 9.39496094 -1.03585937 8.70789063 -1 8 C-1.66 8 -2.32 8 -3 8 C-3 6.68 -3 5.36 -3 4 C-2.34 4 -1.68 4 -1 4 C-0.67 2.68 -0.34 1.36 0 0 Z " fill="#ffffff" transform="translate(339,396)"/>
<path d="M0 0 C1.32 0 2.64 0 4 0 C4 1.32 4 2.64 4 4 C5.65 4 7.3 4 9 4 C9 5.32 9 6.64 9 8 C7.35 8 5.7 8 4 8 C4 10.64 4 13.28 4 16 C5.65 16.33 7.3 16.66 9 17 C9 17.99 9 18.98 9 20 C5.6875 20.6875 5.6875 20.6875 2 21 C0.28125 19.84375 0.28125 19.84375 -1 18 C-1.29296875 15.51953125 -1.29296875 15.51953125 -1.1875 12.8125 C-1.16042969 11.91144531 -1.13335937 11.01039063 -1.10546875 10.08203125 C-1.07066406 9.39496094 -1.03585938 8.70789063 -1 8 C-1.66 8 -2.32 8 -3 8 C-3 6.68 -3 5.36 -3 4 C-2.34 4 -1.68 4 -1 4 C-0.67 2.68 -0.34 1.36 0 0 Z " fill="#ffffff" transform="translate(168,355)"/>
<path d="M0 0 C15.51 0 31.02 0 47 0 C47 0.99 47 1.98 47 3 C31.49 3 15.98 3 0 3 C0 2.01 0 1.02 0 0 Z " fill="#D12327" transform="translate(186,259)"/>
<path d="M0 0 C1.65 0 3.3 0 5 0 C5 6.93 5 13.86 5 21 C3.35 21 1.7 21 0 21 C0 14.07 0 7.14 0 0 Z " fill="#ffffff" transform="translate(154,395)"/>
<path d="M0 0 C1.65 0 3.3 0 5 0 C5 6.93 5 13.86 5 21 C3.35 21 1.7 21 0 21 C0 14.07 0 7.14 0 0 Z " fill="#ffffff" transform="translate(78,354)"/>
<path d="M0 0 C3.3 0 6.6 0 10 0 C10 1.32 10 2.64 10 4 C8.68 4.33 7.36 4.66 6 5 C5.34 8.63 4.68 12.26 4 16 C2.68 16 1.36 16 0 16 C0 10.72 0 5.44 0 0 Z " fill="#ffffff" transform="translate(210,400)"/>
<path d="M0 0 C1.32 0 2.64 0 4 0 C4 5.94 4 11.88 4 18 C2.35 18 0.7 18 -1 18 C-1.02684312 15.18743719 -1.04676188 12.37512759 -1.0625 9.5625 C-1.07087891 8.76005859 -1.07925781 7.95761719 -1.08789062 7.13085938 C-1.0965143 5.08704779 -1.0522815 3.04316098 -1 1 C-0.67 0.67 -0.34 0.34 0 0 Z " fill="#0976fc" transform="translate(304,293)"/>
<path d="M0 0 C1.65 0 3.3 0 5 0 C5 5.28 5 10.56 5 16 C3.35 16 1.7 16 0 16 C0 10.72 0 5.44 0 0 Z " fill="#ffffff" transform="translate(401,359)"/>
<path d="M0 0 C1.65 0 3.3 0 5 0 C5 5.28 5 10.56 5 16 C3.35 16 1.7 16 0 16 C0 10.72 0 5.44 0 0 Z " fill="#f7f0f0" transform="translate(143,359)"/>
<path d="M0 0 C3.3 0 6.6 0 10 0 C10 1.65 10 3.3 10 5 C9.67 3.68 9.34 2.36 9 1 C6.36 1 3.72 1 1 1 C2.12534105 2.35618499 2.12534105 2.35618499 5.0625 2.0625 C6.031875 2.041875 7.00125 2.02125 8 2 C8.66 4.31 9.32 6.62 10 9 C9.01 8.34 8.02 7.68 7 7 C7 5.68 7 4.36 7 3 C5.68 3 4.36 3 3 3 C2.855625 3.804375 2.71125 4.60875 2.5625 5.4375 C2 8 2 8 1 9 C-1.8125 9.3125 -1.8125 9.3125 -5 9 C-7.375 7 -7.375 7 -9 5 C-8.67 4.34 -8.34 3.68 -8 3 C-7.4225 3.309375 -6.845 3.61875 -6.25 3.9375 C-4.15705816 4.92583364 -2.25464725 5.5168613 0 6 C0 4.02 0 2.04 0 0 Z " fill="#D51F24" transform="translate(195,269)"/>
<path d="M0 0 C10.125 0 10.125 0 14 2 C13.67 2.66 13.34 3.32 13 4 C12.34 3.67 11.68 3.34 11 3 C10.67 3.99 10.34 4.98 10 6 C7.525 5.01 7.525 5.01 5 4 C4.67 5.32 4.34 6.64 4 8 C3.67 6.68 3.34 5.36 3 4 C1.12175109 5.87824891 1.60897603 9.03935276 1.4375 11.5625 C1.35371094 12.76003906 1.26992188 13.95757812 1.18359375 15.19140625 C1.12300781 16.11824219 1.06242187 17.04507812 1 18 C0.67 18 0.34 18 0 18 C0 12.06 0 6.12 0 0 Z " fill="#0976fc" transform="translate(285,293)"/>
<path d="M0 0 C6.15234375 -0.09765625 6.15234375 -0.09765625 8 0 C9 1 9 1 9.09765625 3.28515625 C9.08605469 4.20167969 9.07445312 5.11820313 9.0625 6.0625 C9.05347656 6.98160156 9.04445313 7.90070313 9.03515625 8.84765625 C9.02355469 9.55792969 9.01195312 10.26820313 9 11 C10.65 11 12.3 11 14 11 C14 11.33 14 11.66 14 12 C11.125 12.125 11.125 12.125 8 12 C7.34 11.34 6.68 10.68 6 10 C3.89179203 10.3185177 3.89179203 10.3185177 2 11 C2 9.35 2 7.7 2 6 C3.32 5.34 4.64 4.68 6 4 C6 3.34 6 2.68 6 2 C3.03 1.505 3.03 1.505 0 1 C0 0.67 0 0.34 0 0 Z " fill="#0976fc" transform="translate(298,212)"/>
<path d="M0 0 C0.33 0 0.66 0 1 0 C0.28565416 8.8438027 -1.68277442 17.41095437 -3.5625 26.0625 C-3.89558868 27.61124078 -4.22827438 29.16006828 -4.56054688 30.70898438 C-5.36905311 34.4736727 -6.18301174 38.23714369 -7 42 C-7.33 42 -7.66 42 -8 42 C-7.78648022 39.79362891 -7.56911676 37.58760228 -7.33984375 35.3828125 C-7.08193303 32.81556322 -6.84899423 30.25018073 -6.62890625 27.6796875 C-5.92745536 20.00337137 -5.25414048 13.00305806 -1.90234375 5.9453125 C-0.99053556 3.97959614 -0.45949111 2.1127117 0 0 Z " fill="#0976fc" transform="translate(166,268)"/>
<path d="M0 0 C2.61530876 0.36073224 3.79749727 0.79749727 5.6875 2.6875 C7.31368559 5.55268414 7.79868858 7.71191355 8 11 C7.0625 13.875 7.0625 13.875 6 16 C5.01 15.67 4.02 15.34 3 15 C3.01160156 14.37351563 3.02320313 13.74703125 3.03515625 13.1015625 C3.04869141 11.87566406 3.04869141 11.87566406 3.0625 10.625 C3.07410156 9.81289062 3.08570313 9.00078125 3.09765625 8.1640625 C3.14466334 5.95062858 3.14466334 5.95062858 2 4 C0.35 4 -1.3 4 -3 4 C-2.01 2.68 -1.02 1.36 0 0 Z " fill="#0976fc" transform="translate(327,237)"/>
<path d="M0 0 C1.98 0 3.96 0 6 0 C7.98 5.94 9.96 11.88 12 18 C10.35 18 8.7 18 7 18 C6.67 17.01 6.34 16.02 6 15 C6.99 15 7.98 15 9 15 C7.6446674 12.46326712 7.6446674 12.46326712 6 10 C5.34 10 4.68 10 4 10 C3.34 8.68 2.68 7.36 2 6 C2.66 5.67 3.32 5.34 4 5 C4.33 4.01 4.66 3.02 5 2 C3.35 2 1.7 2 0 2 C0 1.34 0 0.68 0 0 Z " fill="#0976fc" transform="translate(272,293)"/>
<path d="M0 0 C0.66 0 1.32 0 2 0 C1.32545897 7.8246759 -0.26876958 15.34556614 -2 23 C-2.33 23 -2.66 23 -3 23 C-2.67 18.38 -2.34 13.76 -2 9 C-5.27773504 9.75150023 -5.27773504 9.75150023 -7 13 C-6.67 10.03 -6.34 7.06 -6 4 C-5.67 4.66 -5.34 5.32 -5 6 C-3.35 5.67 -1.7 5.34 0 5 C0 3.35 0 1.7 0 0 Z " fill="#0976fc" transform="translate(325,286)"/>
<path d="M0 0 C0.66 0.33 1.32 0.66 2 1 C2.46806645 3.33744294 2.82669794 5.69739079 3.125 8.0625 C3.29257812 9.35285156 3.46015625 10.64320313 3.6328125 11.97265625 C3.75398438 12.97167969 3.87515625 13.97070312 4 15 C2.35 15 0.7 15 -1 15 C-1.02693575 12.87506859 -1.04636628 10.75004088 -1.0625 8.625 C-1.07410156 7.44164062 -1.08570313 6.25828125 -1.09765625 5.0390625 C-1 2 -1 2 0 0 Z " fill="#0976fc" transform="translate(287,296)"/>
<path d="M0 0 C0.66 0 1.32 0 2 0 C2 5.61 2 11.22 2 17 C-2.62 17 -7.24 17 -12 17 C-12 16.67 -12 16.34 -12 16 C-6.555 15.505 -6.555 15.505 -1 15 C-0.67 10.05 -0.34 5.1 0 0 Z " fill="#E90C10" transform="translate(231,267)"/>
<path d="M0 0 C2.5625 0.1875 2.5625 0.1875 4.5625 2.1875 C4.1875 4.8125 4.1875 4.8125 3.5625 7.1875 C1.56295254 7.23004356 -0.43791636 7.22830783 -2.4375 7.1875 C-3.4375 6.1875 -3.4375 6.1875 -3.5625 3.6875 C-3.39599509 0.35740177 -3.31519894 0.2550153 0 0 Z " fill="#D6181B" transform="translate(229.4375,249.8125)"/>
<path d="M0 0 C2.5625 -0.25 2.5625 -0.25 5 0 C6 1 6 1 6.125 3.5 C6 6 6 6 5 7 C3.33382885 7.04063832 1.66611905 7.042721 0 7 C-0.66 5.68 -1.32 4.36 -2 3 C-1.34 2.01 -0.68 1.02 0 0 Z " fill="#d11e21" transform="translate(209,250)"/>
<path d="M0 0 C1.32 0 2.64 0 4 0 C4 3.63 4 7.26 4 11 C3.67 11 3.34 11 3 11 C2.67 8.69 2.34 6.38 2 4 C0.75698015 5.02208912 0.75698015 5.02208912 0.8671875 7.1796875 C0.86976563 8.06914062 0.87234375 8.95859375 0.875 9.875 C0.87242187 10.75929688 0.86984375 11.64359375 0.8671875 12.5546875 C0.89951415 15.13906291 0.89951415 15.13906291 2 18 C1.01 18 0.02 18 -1 18 C-1.02684312 15.18743719 -1.04676188 12.37512759 -1.0625 9.5625 C-1.07087891 8.76005859 -1.07925781 7.95761719 -1.08789062 7.13085938 C-1.0965143 5.08704779 -1.0522815 3.04316098 -1 1 C-0.67 0.67 -0.34 0.34 0 0 Z " fill="#0976fc" transform="translate(304,293)"/>
<path d="M0 0 C2.5 0.125 2.5 0.125 3.5 1.125 C3.625 3.625 3.625 3.625 3.5 6.125 C2.5 7.125 2.5 7.125 0 7.25 C-2.5 7.125 -2.5 7.125 -3.5 6.125 C-3.625 3.625 -3.625 3.625 -3.5 1.125 C-2.5 0.125 -2.5 0.125 0 0 Z " fill="#D71C20" transform="translate(220.5,249.875)"/>
<path d="M0 0 C1.65 0.33 3.3 0.66 5 1 C5.33 1.99 5.66 2.98 6 4 C5.01 5.485 5.01 5.485 4 7 C2.35 6.67 0.7 6.34 -1 6 C-1.33 5.01 -1.66 4.02 -2 3 C-1.34 2.01 -0.68 1.02 0 0 Z " fill="#0976fc" transform="translate(162,193)"/>
<path d="M0 0 C4 4.75 4 4.75 4 7 C0.7 6.67 -2.6 6.34 -6 6 C-6 4.35 -6 2.7 -6 1 C-4.02 1.66 -2.04 2.32 0 3 C0 2.01 0 1.02 0 0 Z " fill="#0976fc" transform="translate(277,301)"/>
<path d="M0 0 C-0.33 0.99 -0.66 1.98 -1 3 C-0.01 3.33 0.98 3.66 2 4 C-1.11257569 4 -3.10765685 3.82638376 -6 3 C-6.33 4.65 -6.66 6.3 -7 8 C-7.33 8 -7.66 8 -8 8 C-8.33 5.36 -8.66 2.72 -9 0 C-5.93109813 -1.53445094 -3.29905734 -0.54984289 0 0 Z " fill="#CC1C21" transform="translate(212,304)"/>
<path d="M0 0 C0.99 0.66 1.98 1.32 3 2 C3.3125 5 3.3125 5 3 8 C2.34 8.66 1.68 9.32 1 10 C-0.5 8.875 -0.5 8.875 -2 7 C-2.1875 3.8125 -2.1875 3.8125 -2 1 C-1.34 0.67 -0.68 0.34 0 0 Z " fill="#0976fc" transform="translate(329,255)"/>
<path d="M0 0 C0.33 0 0.66 0 1 0 C1 3.3 1 6.6 1 10 C1.66 10 2.32 10 3 10 C3 11.32 3 12.64 3 14 C2.01 13.67 1.02 13.34 0 13 C-1.25069801 10.49860398 -1.13302467 8.72607309 -1.125 5.9375 C-1.12757813 5.03902344 -1.13015625 4.14054687 -1.1328125 3.21484375 C-1 1 -1 1 0 0 Z " fill="#DA1318" transform="translate(189,284)"/>
<path d="M0 0 C1.51553092 3.97450493 0.49888623 7.20481149 -0.4375 11.25 C-0.72496094 12.51328125 -1.01242188 13.7765625 -1.30859375 15.078125 C-1.53675781 16.04234375 -1.76492187 17.0065625 -2 18 C-2.33 18 -2.66 18 -3 18 C-3.33 14.04 -3.66 10.08 -4 6 C-3.34 6 -2.68 6 -2 6 C-1.34 4.02 -0.68 2.04 0 0 Z " fill="#007aff" transform="translate(170,250)"/>
<path d="M0 0 C2.0625 0.4375 2.0625 0.4375 4 1 C4 2.32 4 3.64 4 5 C2.68 5.33 1.36 5.66 0 6 C-0.38218767 4.34385343 -0.71395102 2.67542976 -1 1 C-0.67 0.67 -0.34 0.34 0 0 Z " fill="#ffffff" transform="translate(144,352)"/>
<path d="M0 0 C2.0625 0.4375 2.0625 0.4375 4 1 C4 2.32 4 3.64 4 5 C2.68 5.33 1.36 5.66 0 6 C-0.38218767 4.34385343 -0.71395102 2.67542976 -1 1 C-0.67 0.67 -0.34 0.34 0 0 Z " fill="#ffffff" transform="translate(402,352)"/>
<path d="M0 0 C0.66 0 1.32 0 2 0 C2 1.98 2 3.96 2 6 C-0.64 6 -3.28 6 -6 6 C-6 5.01 -6 4.02 -6 3 C-3.03 3.495 -3.03 3.495 0 4 C0 2.68 0 1.36 0 0 Z " fill="#DC0E13" transform="translate(202,306)"/>
<path d="M0 0 C2 2 2 2 2.1875 5.5 C2 9 2 9 1 11 C0.34 11 -0.32 11 -1 11 C-1.33 9.02 -1.66 7.04 -2 5 C-1.67 5 -1.34 5 -1 5 C-0.67 3.35 -0.34 1.7 0 0 Z " fill="#0976fc" transform="translate(299,297)"/>
<path d="M0 0 C2.31 0 4.62 0 7 0 C5.02 0.99 5.02 0.99 3 2 C3 3.32 3 4.64 3 6 C2.01 6 1.02 6 0 6 C0 4.02 0 2.04 0 0 Z " fill="#D3181E" transform="translate(208,266)"/>
<path d="M0 0 C1.07310858 3.27185553 0.89263102 5.42947592 0.0625 8.75 C-0.13214844 9.54921875 -0.32679688 10.3484375 -0.52734375 11.171875 C-0.68332031 11.77515625 -0.83929688 12.3784375 -1 13 C-1.33 13 -1.66 13 -2 13 C-2.05391993 11.20866022 -2.09275571 9.41686101 -2.125 7.625 C-2.14820313 6.62726563 -2.17140625 5.62953125 -2.1953125 4.6015625 C-2 2 -2 2 0 0 Z " fill="#0976fc" transform="translate(321,310)"/>
<path d="M0 0 C1.32 0.33 2.64 0.66 4 1 C4.33 2.65 4.66 4.3 5 6 C4.01 6.33 3.02 6.66 2 7 C1.34 4.69 0.68 2.38 0 0 Z " fill="#D71318" transform="translate(183,294)"/>
<path d="M0 0 C0.66 0 1.32 0 2 0 C2 3.3 2 6.6 2 10 C1.01 10 0.02 10 -1 10 C-0.67 6.7 -0.34 3.4 0 0 Z " fill="#DB1316" transform="translate(210,286)"/>
<path d="M0 0 C0.66 0.33 1.32 0.66 2 1 C2 2.32 2 3.64 2 5 C0.35 5.33 -1.3 5.66 -3 6 C-2.625 3.5625 -2.625 3.5625 -2 1 C-1.34 0.67 -0.68 0.34 0 0 Z " fill="#0976fc" transform="translate(323,286)"/>
<path d="M0 0 C1 4 1 4 1 6 C1.66 6.66 2.32 7.32 3 8 C2 9 2 9 -0.5625 9.0625 C-1.366875 9.041875 -2.17125 9.02125 -3 9 C-2.01 6.03 -1.02 3.06 0 0 Z " fill="#0976fc" transform="translate(269,302)"/>
<path d="M0 0 C0.66 0.33 1.32 0.66 2 1 C2.625 3.0625 2.625 3.0625 3 5 C2.01 5.495 2.01 5.495 1 6 C0.67 6.99 0.34 7.98 0 9 C-0.66 9 -1.32 9 -2 9 C-1.51421457 5.87709365 -1.0013988 3.00419641 0 0 Z " fill="#E80403" transform="translate(254,301)"/>
<path d="M0 0 C1.65 0 3.3 0 5 0 C5 0.66 5 1.32 5 2 C4.01 2 3.02 2 2 2 C2.33 3.65 2.66 5.3 3 7 C2.01 7 1.02 7 0 7 C0 4.69 0 2.38 0 0 Z " fill="#E00E19" transform="translate(179,287)"/>
<path d="M0 0 C0.33 0 0.66 0 1 0 C1.33 2.64 1.66 5.28 2 8 C0.35 7.67 -1.3 7.34 -3 7 C-2.01 4.69 -1.02 2.38 0 0 Z " fill="#0976fc" transform="translate(153,320)"/>
<path d="M0 0 C1.0326802 2.78823655 1.04509293 3.8677274 0.0625 6.75 C-0.288125 7.4925 -0.63875 8.235 -1 9 C-2.4606285 6.35261084 -3 5.10551666 -3 2 C-2.01 2 -1.02 2 0 2 C0 1.34 0 0.68 0 0 Z " fill="#0976fc" transform="translate(157,311)"/>
<path d="M0 0 C0.99 0.66 1.98 1.32 3 2 C2.67 5.3 2.34 8.6 2 12 C1.67 12 1.34 12 1 12 C0.8046875 10.01432292 0.609375 8.02864583 0.4140625 6.04296875 C0.07334609 3.70011858 0.07334609 3.70011858 -2 1 C-1.34 0.67 -0.68 0.34 0 0 Z " fill="#C42326" transform="translate(208,282)"/>
<path d="M0 0 C2.97 0 5.94 0 9 0 C9 0.66 9 1.32 9 2 C6.03 2 3.06 2 0 2 C0 1.34 0 0.68 0 0 Z " fill="#C91921" transform="translate(186,266)"/>
<path d="M0 0 C0.99 0.33 1.98 0.66 3 1 C3 3.31 3 5.62 3 8 C0.37613513 4.93882432 0 4.26826873 0 0 Z " fill="#0976fc" transform="translate(296,296)"/>
<path d="M0 0 C1.65 0 3.3 0 5 0 C5 0.66 5 1.32 5 2 C4.1028125 2.1546875 4.1028125 2.1546875 3.1875 2.3125 C0.71756736 3.08876455 -0.32251235 4.07088921 -2 6 C-1.34 4.02 -0.68 2.04 0 0 Z " fill="#BE1D24" transform="translate(256,293)"/>
<path d="M0 0 C2.49361571 1.20381448 4.68143083 2.45428722 7 4 C5.02 4.33 3.04 4.66 1 5 C0.34 3.68 -0.32 2.36 -1 1 C-0.67 0.67 -0.34 0.34 0 0 Z " fill="#CA2327" transform="translate(187,272)"/>
<path d="M0 0 C2.375 -0.125 2.375 -0.125 5 0 C5.66 0.66 6.32 1.32 7 2 C6.67 2.99 6.34 3.98 6 5 C3.5625 4.1875 3.5625 4.1875 1 3 C0.67 2.01 0.34 1.02 0 0 Z " fill="#D01B25" transform="translate(227,250)"/>
</svg>