<?xml version="1.0" encoding="UTF-8"?>
<svg version="1.1" xmlns="http://www.w3.org/2000/svg" width="500" height="500">
<path d="M0 0 C1.10479706 -0.0127597 2.20959412 -0.02551941 3.34786987 -0.03866577 C4.54163239 -0.04089142 5.7353949 -0.04311707 6.96533203 -0.04541016 C8.80564499 -0.05539536 8.80564499 -0.05539536 10.68313599 -0.06558228 C13.28060403 -0.07571582 15.87809815 -0.08039908 18.47558594 -0.08007812 C22.45046919 -0.08444773 26.42423933 -0.12075279 30.39892578 -0.15869141 C32.9210574 -0.16456004 35.44319429 -0.16852912 37.96533203 -0.17041016 C39.15504608 -0.18478119 40.34476013 -0.19915222 41.57052612 -0.21395874 C49.82045879 -0.16827076 49.82045879 -0.16827076 53.82519531 2.19433594 C56.80254067 5.71450769 56.70906589 7.86391971 56.66064453 12.41552734 C56.65162109 13.51123047 56.64259766 14.60693359 56.63330078 15.73583984 C56.62169922 16.57888672 56.61009766 17.42193359 56.59814453 18.29052734 C57.859039 18.28830673 59.11993347 18.28608612 60.41903687 18.28379822 C72.27962611 18.26356011 84.14021187 18.24855196 96.00081444 18.23871517 C102.09902031 18.23348806 108.19721228 18.22639349 114.29541016 18.21508789 C120.17627729 18.20425297 126.05713102 18.19824921 131.93800735 18.1956501 C134.18597245 18.19379695 136.43393679 18.19017843 138.68189621 18.18479729 C141.82115028 18.17757886 144.96034839 18.17653675 148.09960938 18.17700195 C149.03684341 18.17340668 149.97407745 18.1698114 150.93971252 18.16610718 C152.21858086 18.16816917 152.21858086 18.16816917 153.52328491 18.17027283 C154.26625006 18.16935103 155.0092152 18.16842924 155.77469444 18.16747952 C157.59814453 18.29052734 157.59814453 18.29052734 159.59814453 19.29052734 C159.59814453 26.88052734 159.59814453 34.47052734 159.59814453 42.29052734 C161.24814453 42.62052734 162.89814453 42.95052734 164.59814453 43.29052734 C164.92814453 43.62052734 165.25814453 43.95052734 165.59814453 44.29052734 C165.50851391 45.9819439 165.35236777 47.67012336 165.16064453 49.35302734 C165.05880859 50.27212891 164.95697266 51.19123047 164.85205078 52.13818359 C164.76826172 52.84845703 164.68447266 53.55873047 164.59814453 54.29052734 C165.45279297 54.35111328 166.30744141 54.41169922 167.18798828 54.47412109 C168.29271484 54.55791016 169.39744141 54.64169922 170.53564453 54.72802734 C171.63779297 54.80923828 172.73994141 54.89044922 173.87548828 54.97412109 C176.59814453 55.29052734 176.59814453 55.29052734 177.59814453 56.29052734 C177.86358871 61.46989963 177.18592105 66.22207195 176.08520508 71.2578125 C175.92421326 72.0213353 175.76322144 72.78485809 175.59735107 73.57151794 C175.06715441 76.0758267 174.52647735 78.57772751 173.98486328 81.07958984 C173.61054361 82.82872905 173.23659202 84.57794707 172.86299133 86.32723999 C172.08004502 89.98467314 171.29172538 93.64089723 170.49975586 97.29638672 C169.48655408 101.97574968 168.48824762 106.65814698 167.49411297 111.34159279 C166.72593319 114.95126393 165.94916184 118.55904529 165.16987038 122.16633224 C164.79827856 123.89206082 164.42951557 125.61840108 164.06366539 127.34535599 C163.55101933 129.75958641 163.02666702 132.17098705 162.49926758 134.58203125 C162.27700249 135.64663322 162.27700249 135.64663322 162.05024719 136.73274231 C161.14960922 140.78092911 160.19970998 144.0365858 157.59814453 147.29052734 C154.64489746 147.91414642 154.64489746 147.91414642 150.95556641 147.9119873 C150.27725014 147.91837613 149.59893387 147.92476495 148.90006256 147.93134737 C146.62174385 147.94663714 144.34515329 147.92611275 142.06689453 147.90576172 C140.43586652 147.90926177 138.80484191 147.91491903 137.17382812 147.9225769 C132.7398357 147.93685149 128.30646144 147.91973756 123.87252808 147.89629173 C119.23744916 147.87621966 114.60239684 147.88206038 109.96728516 147.88439941 C102.18267592 147.8843458 94.39830909 147.86456529 86.61376953 147.83251953 C77.60745233 147.79562496 68.60145279 147.78684354 59.59506989 147.79381704 C50.93939412 147.80011733 42.28382756 147.78937656 33.62817383 147.76985168 C29.94082079 147.76166643 26.25352348 147.7589702 22.56616211 147.76054382 C18.22572281 147.76142131 13.88558645 147.74724347 9.54522705 147.72131729 C7.95006783 147.71414117 6.35487642 147.7120788 4.75970459 147.71543503 C2.58637945 147.71913617 0.41394516 147.7044515 -1.75927734 147.68493652 C-3.58549622 147.67934345 -3.58549622 147.67934345 -5.4486084 147.67363739 C-8.40185547 147.29052734 -8.40185547 147.29052734 -10.29320717 146.10859394 C-11.83050414 143.58758862 -11.77944629 141.75504529 -11.7828064 138.80705261 C-11.79126587 137.66727463 -11.79972534 136.52749664 -11.80844116 135.35317993 C-11.80236847 134.10169159 -11.79629578 132.85020325 -11.79003906 131.56079102 C-11.79529602 130.2435051 -11.80055298 128.92621918 -11.80596924 127.5690155 C-11.81966209 123.95311917 -11.81433517 120.33747925 -11.80483198 116.72157836 C-11.79724077 112.93671839 -11.80427993 109.15188048 -11.80899048 105.36701965 C-11.81445162 99.00741637 -11.80724917 92.64791751 -11.79296875 86.28833008 C-11.77666252 78.94187596 -11.78191443 71.59567188 -11.79844797 64.24922389 C-11.81207781 57.93997061 -11.81397455 51.63079246 -11.80613196 45.32152921 C-11.80146094 41.55426363 -11.80081436 37.78711539 -11.81074142 34.01985741 C-11.81942993 30.47474968 -11.81335515 26.9299628 -11.79605865 23.3848896 C-11.7902207 21.46808433 -11.79909482 19.55125182 -11.80844116 17.63446045 C-11.72937301 6.9022294 -11.72937301 6.9022294 -8.40185547 2.29052734 C-5.05045023 0.05625718 -3.91910104 0.03070385 0 0 Z M-3.40185547 7.29052734 C-4.53974281 9.56630203 -4.5252761 10.80086159 -4.52210999 13.3274231 C-4.52348465 14.17158783 -4.52485931 15.01575256 -4.52627563 15.88549805 C-4.52268036 16.81338135 -4.51908508 17.74126465 -4.51538086 18.69726562 C-4.51552689 19.67291473 -4.51567291 20.64856384 -4.51582336 21.65377808 C-4.51512482 24.88948769 -4.50733513 28.12514025 -4.49951172 31.36083984 C-4.49764733 33.60000578 -4.49622353 35.83917213 -4.495224 38.07833862 C-4.49140045 43.98025635 -4.48157154 49.88214959 -4.47052002 55.78405762 C-4.46030241 61.8031379 -4.45572563 67.82222214 -4.45068359 73.84130859 C-4.43994914 85.65772562 -4.42287465 97.47412445 -4.40185547 109.29052734 C3.73836438 93.78129858 2.08115252 74.51039453 1.84814453 57.60302734 C1.82803005 55.0398904 1.80978812 52.47673806 1.79345703 49.91357422 C1.74989824 43.70554916 1.68338582 37.49811289 1.59814453 31.29052734 C20.35613951 31.26719947 39.11413156 31.24954872 57.87213802 31.23871517 C66.58118613 31.23355198 75.29022524 31.22650884 83.99926758 31.21508789 C91.58728194 31.20514177 99.17528979 31.19867409 106.76331049 31.19643885 C110.78361572 31.19513162 114.80390231 31.192045 118.82420158 31.18479729 C122.60388437 31.1780382 126.38354074 31.17591015 130.16322899 31.17741966 C131.55444736 31.17714328 132.94566656 31.1751375 134.33687973 31.17132187 C136.22827779 31.16638643 138.11968985 31.16812937 140.01109314 31.17027283 C141.07207686 31.16935103 142.13306059 31.16842924 143.22619534 31.16747952 C145.59814453 31.29052734 145.59814453 31.29052734 146.59814453 32.29052734 C146.83101461 33.97236682 147.01078619 35.66176894 147.16064453 37.35302734 C147.24443359 38.27212891 147.32822266 39.19123047 147.41455078 40.13818359 C147.47513672 40.84845703 147.53572266 41.55873047 147.59814453 42.29052734 C149.24814453 42.29052734 150.89814453 42.29052734 152.59814453 42.29052734 C152.59814453 36.68052734 152.59814453 31.07052734 152.59814453 25.29052734 C150.70347191 25.27506615 150.70347191 25.27506615 148.77052307 25.2592926 C136.89485509 25.16174076 125.01924164 25.05902447 113.14366245 24.95118809 C107.03760693 24.89590968 100.93154666 24.84248196 94.82543945 24.79321289 C88.93805047 24.74564171 83.05072181 24.6933018 77.16340446 24.63758659 C74.91183909 24.6171301 72.66025715 24.5984226 70.4086628 24.58145332 C67.2667654 24.557482 64.12498321 24.52741787 60.9831543 24.49584961 C60.04232498 24.49009415 59.10149567 24.48433868 58.13215637 24.47840881 C51.71219669 24.40457951 51.71219669 24.40457951 50.59814453 23.29052734 C50.32815552 20.08065804 50.15203016 16.87821875 49.99267578 13.66162109 C50.10108934 10.18108457 50.10108934 10.18108457 48.59814453 7.29052734 C46.97139675 7.19712301 45.34060402 7.17307563 43.71118164 7.17700195 C42.14967628 7.17711525 42.14967628 7.17711525 40.55662537 7.17723083 C38.85821251 7.18497276 38.85821251 7.18497276 37.12548828 7.19287109 C35.97270889 7.19428604 34.8199295 7.19570099 33.63221741 7.19715881 C29.9333339 7.20277729 26.23450989 7.21533293 22.53564453 7.22802734 C20.03499436 7.23303996 17.53434325 7.23760328 15.03369141 7.24169922 C8.88848865 7.25275272 2.74332084 7.26950882 -3.40185547 7.29052734 Z M8.59814453 37.29052734 C8.59814453 43.23052734 8.59814453 49.17052734 8.59814453 55.29052734 C11.23814453 55.29052734 13.87814453 55.29052734 16.59814453 55.29052734 C17.10374361 53.85498709 17.60241943 52.41700715 18.09814453 50.97802734 C18.37658203 50.17751953 18.65501953 49.37701172 18.94189453 48.55224609 C19.73747561 46.20283313 19.73747561 46.20283313 19.59814453 43.29052734 C79.49314453 42.79552734 79.49314453 42.79552734 140.59814453 42.29052734 C140.59814453 40.64052734 140.59814453 38.99052734 140.59814453 37.29052734 C97.03814453 37.29052734 53.47814453 37.29052734 8.59814453 37.29052734 Z M25.59814453 49.29052734 C25.26814453 51.27052734 24.93814453 53.25052734 24.59814453 55.29052734 C68.15814453 55.29052734 111.71814453 55.29052734 156.59814453 55.29052734 C156.92814453 53.31052734 157.25814453 51.33052734 157.59814453 49.29052734 C114.03814453 49.29052734 70.47814453 49.29052734 25.59814453 49.29052734 Z M13.59814453 61.29052734 C9.00243526 81.08214217 9.00243526 81.08214217 4.60595703 100.91552734 C4.25245682 102.55122681 4.25245682 102.55122681 3.89181519 104.2199707 C3.40889079 106.45699569 2.92686851 108.69421563 2.44580078 110.93164062 C1.70528611 114.37353279 0.96043391 117.81446935 0.21533203 121.25537109 C-0.2588797 123.45453522 -0.73284807 125.65375184 -1.20654297 127.85302734 C-1.42833221 128.8767041 -1.65012146 129.90038086 -1.87863159 130.95507812 C-2.07949371 131.89206543 -2.28035583 132.82905273 -2.48730469 133.79443359 C-2.75327957 135.02915405 -2.75327957 135.02915405 -3.02462769 136.28881836 C-3.46358648 138.27860411 -3.46358648 138.27860411 -3.40185547 140.29052734 C48.40814453 140.29052734 100.21814453 140.29052734 153.59814453 140.29052734 C159.84141328 112.23320334 159.84141328 112.23320334 166.046875 84.16748047 C166.42784259 82.43844777 166.80973785 80.7096193 167.19238281 78.98095703 C167.76712147 76.38405938 168.33920212 73.78658953 168.91064453 71.18896484 C169.08241211 70.41539642 169.25417969 69.641828 169.43115234 68.84481812 C170.29251525 65.10288802 170.29251525 65.10288802 170.59814453 61.29052734 C118.78814453 61.29052734 66.97814453 61.29052734 13.59814453 61.29052734 Z " fill="#06438B" transform="translate(159.40185546875,180.70947265625)"/>
<path d="M0 0 C0.99 0.495 0.99 0.495 2 1 C2 3.97 2 6.94 2 10 C1.34 10.33 0.68 10.66 0 11 C-0.65213292 13.02463255 -0.65213292 13.02463255 -1 15 C-21.67917175 15.15383887 -42.35837775 15.30187388 -63.03764057 15.4429636 C-72.63896667 15.50860711 -82.24027225 15.57616339 -91.84155273 15.64819336 C-100.20817614 15.71095596 -108.57481579 15.77015955 -116.94149464 15.82505554 C-121.37324003 15.85425859 -125.80495648 15.88526672 -130.2366581 15.92053413 C-134.40536681 15.95365249 -138.57408051 15.98202281 -142.74284744 16.00670624 C-144.27514195 16.0166243 -145.80742623 16.02829697 -147.33969307 16.04183006 C-149.42745723 16.06001026 -151.51516604 16.07194802 -153.60298157 16.08229065 C-154.77273686 16.09058679 -155.94249216 16.09888292 -157.14769459 16.10743046 C-160 16 -160 16 -163 15 C-163 12.03 -163 9.06 -163 6 C-162.34 6.66 -161.68 7.32 -161 8 C-158.13914225 8.31599196 -158.13914225 8.31599196 -154.72323608 8.2784729 C-154.07224241 8.2842653 -153.42124873 8.2900577 -152.75052798 8.29602563 C-150.55938449 8.31309162 -148.36845078 8.31590772 -146.17724609 8.31884766 C-144.61046325 8.32814131 -143.04368539 8.33830913 -141.47691345 8.34928894 C-137.21478171 8.37666662 -132.95268314 8.39176126 -128.69048643 8.40471697 C-124.23947038 8.42031365 -119.78852246 8.44711482 -115.33755493 8.4727478 C-106.90510527 8.5195971 -98.47264288 8.55631137 -90.0401293 8.58942068 C-80.44167457 8.6275987 -70.84328815 8.67702011 -61.24489093 8.72740483 C-41.49664435 8.83081614 -21.74835456 8.92004653 -2 9 C-2.04125 8.071875 -2.0825 7.14375 -2.125 6.1875 C-2 3 -2 3 0 0 Z " fill="#014490" transform="translate(317,312)"/>
<path d="M0 0 C44.55 0 89.1 0 135 0 C134.67 0.99 134.34 1.98 134 3 C126.97588201 3.91768606 120.10541176 4.15090423 113.02612305 4.15771484 C111.86080551 4.16279556 110.69548798 4.16787628 109.49485779 4.17311096 C106.97897262 4.18376482 104.46307826 4.19240429 101.94717979 4.19923019 C97.96733423 4.21106954 93.9875649 4.23025155 90.00776672 4.25234985 C78.69751726 4.31402083 67.38727675 4.36838154 56.0769043 4.40136719 C49.8159457 4.4197056 43.5551295 4.44861746 37.29427558 4.4893719 C33.98658241 4.51042772 30.67910759 4.52421134 27.37134361 4.52817917 C23.68964945 4.5330671 20.00849038 4.55616691 16.3269043 4.58349609 C15.23333618 4.58048996 14.13976807 4.57748383 13.01306152 4.5743866 C12.01087082 4.58547958 11.00868011 4.59657257 9.97612 4.60800171 C9.10657527 4.61131186 8.23703054 4.614622 7.34113598 4.61803246 C4.52066648 5.07820556 3.18849241 6.21988196 1 8 C0.34 8 -0.32 8 -1 8 C-0.67 5.36 -0.34 2.72 0 0 Z " fill="#014493" transform="translate(163,213)"/>
<path d="M0 0 C3.3 0 6.6 0 10 0 C10.33 1.65 10.66 3.3 11 5 C12.2375 4.7525 13.475 4.505 14.75 4.25 C18.03161925 3.83615459 18.68060211 3.7896648 21.5625 5.6875 C23 8 23 8 22.75 10 C22.5025 10.66 22.255 11.32 22 12 C22 13.32 22 14.64 22 16 C23.65 16.33 25.3 16.66 27 17 C27 19.97 27 22.94 27 26 C25.02 26.66 23.04 27.32 21 28 C21.350625 28.5775 21.70125 29.155 22.0625 29.75 C23 32 23 32 22.875 34 C21.73959163 36.59521914 20.08514322 38.11664483 18 40 C17.401875 39.67 16.80375 39.34 16.1875 39 C13.94613529 37.79212012 13.94613529 37.79212012 11 38 C10.67 39.65 10.34 41.3 10 43 C6.7 43 3.4 43 0 43 C-0.495 40.525 -0.495 40.525 -1 38 C-1.86625 38.2475 -1.86625 38.2475 -2.75 38.5 C-5 39 -5 39 -9 39 C-11.3125 37.25 -11.3125 37.25 -13 35 C-12.75 33 -12.75 33 -12 31 C-12 29.68 -12 28.36 -12 27 C-13.65 26.67 -15.3 26.34 -17 26 C-17 23.03 -17 20.06 -17 17 C-15.02 17 -13.04 17 -11 17 C-11.6735698 13.42189816 -11.6735698 13.42189816 -12.875 10 C-12.91625 9.34 -12.9575 8.68 -13 8 C-10.5625 5.25 -10.5625 5.25 -8 3 C-7.4225 3.309375 -6.845 3.61875 -6.25 3.9375 C-4.15705816 4.92583364 -2.25464725 5.5168613 0 6 C0 4.02 0 2.04 0 0 Z M3 3 C2.34 4.65 1.68 6.3 1 8 C-2.34252724 8.07427838 -4.8035914 8.06546953 -8 7 C-8.85755101 9.57265303 -9.02914977 10.88048595 -8.375 13.5625 C-8 16 -8 16 -9.25 17.75 C-11 19 -11 19 -14 20 C-14 21.32 -14 22.64 -14 24 C-13.195625 24.226875 -12.39125 24.45375 -11.5625 24.6875 C-9 26 -9 26 -8.125 28.375 C-8.00635513 30.86654217 -8.21607764 32.64823293 -9 35 C-7.68 35 -6.36 35 -5 35 C-2.66666667 35 -0.33333333 35 2 35 C2.66 36.98 3.32 38.96 4 41 C4.99 41 5.98 41 7 41 C7.33 39.02 7.66 37.04 8 35 C14.625 34.875 14.625 34.875 18 36 C19.26900206 33.0314418 19.26900206 33.0314418 18.375 30 C18 27 18 27 19.25 25.1875 C21 24 21 24 24 23 C24 22.01 24 21.02 24 20 C23.195625 19.79375 22.39125 19.5875 21.5625 19.375 C20.716875 18.92125 19.87125 18.4675 19 18 C18.24936281 15.22841653 18 12.85785481 18 10 C18.66 9.67 19.32 9.34 20 9 C19.01 8.34 18.02 7.68 17 7 C16.01 7.495 16.01 7.495 15 8 C13.00039988 8.039992 10.99952758 8.04346799 9 8 C8.34 6.35 7.68 4.7 7 3 C5.68 3 4.36 3 3 3 Z " fill="#D6181E" transform="translate(195,269)"/>
<path d="M0 0 C1.10472153 -0.01268417 2.20944305 -0.02536835 3.34764099 -0.03843689 C4.53624222 -0.03550125 5.72484344 -0.03256561 6.94946289 -0.02954102 C8.78765343 -0.03740379 8.78765343 -0.03740379 10.66297913 -0.04542542 C13.25447838 -0.05184872 15.84600677 -0.05050468 18.4375 -0.04199219 C22.40360433 -0.03348697 26.36826667 -0.06223493 30.33422852 -0.09399414 C32.85180621 -0.09560632 35.36938645 -0.0950283 37.88696289 -0.09204102 C39.07353989 -0.10327499 40.26011688 -0.11450897 41.48265076 -0.12608337 C49.70546374 -0.05645648 49.70546374 -0.05645648 53.70947266 2.31005859 C58.38531815 7.82576851 56.48461914 8.69755743 56.48461914 18.40405273 C89.81461914 18.40405273 123.14461914 18.40405273 157.48461914 18.40405273 C157.48461914 18.73405273 157.48461914 19.06405273 157.48461914 19.40405273 C106.49961914 19.89905273 106.49961914 19.89905273 54.48461914 20.40405273 C54.48461914 21.39405273 54.48461914 22.38405273 54.48461914 23.40405273 C87.15461914 23.73405273 119.82461914 24.06405273 153.48461914 24.40405273 C153.48461914 30.34405273 153.48461914 36.28405273 153.48461914 42.40405273 C153.15461914 42.40405273 152.82461914 42.40405273 152.48461914 42.40405273 C152.48461914 36.79405273 152.48461914 31.18405273 152.48461914 25.40405273 C150.59327744 25.41071457 150.59327744 25.41071457 148.66372681 25.41751099 C136.8031474 25.45798717 124.94258194 25.48800345 113.08194923 25.50767708 C106.98372147 25.51813135 100.88554929 25.53232046 94.78735352 25.55493164 C88.9064822 25.5766015 83.02566447 25.58860897 77.14475632 25.59380722 C74.89678478 25.59751353 72.64881629 25.60475062 70.40086746 25.61551285 C67.26156435 25.62994993 64.12248505 25.63203395 60.9831543 25.63110352 C59.57730324 25.64188934 59.57730324 25.64188934 58.14305115 25.65289307 C57.29047226 25.65014374 56.43789337 25.64739441 55.55947876 25.64456177 C54.81651361 25.64640535 54.07354847 25.64824894 53.30806923 25.65014839 C51.48461914 25.40405273 51.48461914 25.40405273 49.48461914 23.40405273 C48.98961914 15.97905273 48.98961914 15.97905273 48.48461914 8.40405273 C31.32461914 8.07405273 14.16461914 7.74405273 -3.51538086 7.40405273 C-3.51538086 7.07405273 -3.51538086 6.74405273 -3.51538086 6.40405273 C3.95927359 6.30270538 11.43375114 6.23260924 18.90893555 6.18432617 C21.45229717 6.16420002 23.99561248 6.13689636 26.53881836 6.10229492 C30.19274318 6.05382304 33.8460567 6.03109357 37.50024414 6.01342773 C39.20824188 5.98246002 39.20824188 5.98246002 40.95074463 5.9508667 C42.54194122 5.95041351 42.54194122 5.95041351 44.1652832 5.94995117 C45.09794006 5.94106873 46.03059692 5.93218628 46.99151611 5.92303467 C50.20632543 6.54329839 51.40717607 7.94778673 53.48461914 10.40405273 C52.48461914 9.40405273 52.48461914 9.40405273 52.04711914 6.40405273 C51.86149414 5.41405273 51.67586914 4.42405273 51.48461914 3.40405273 C48.97852686 2.15100659 47.26018648 2.2703451 44.45581055 2.25878906 C43.40777252 2.25240921 42.3597345 2.24602936 41.27993774 2.23945618 C40.14349823 2.23834335 39.00705872 2.23723053 37.83618164 2.23608398 C36.67210785 2.23275558 35.50803406 2.22942719 34.3086853 2.22599792 C31.84226884 2.2209275 29.3758455 2.21858963 26.90942383 2.21875 C23.13229065 2.21656584 19.35545051 2.19841748 15.57836914 2.17944336 C13.18514098 2.17650903 10.79191142 2.1745245 8.39868164 2.17358398 C7.26629059 2.16639847 6.13389954 2.15921295 4.9671936 2.15180969 C3.91285126 2.15488632 2.85850891 2.15796295 1.7722168 2.16113281 C0.84559235 2.15970779 -0.0810321 2.15828278 -1.03573608 2.15681458 C-4.8302708 2.53515658 -6.85025486 3.59639974 -9.26538086 6.52905273 C-9.67788086 7.14780273 -10.09038086 7.76655273 -10.51538086 8.40405273 C-10.19692111 5.45830001 -9.98235032 3.85471324 -7.81321716 1.76133728 C-5.00301579 0.10140925 -3.25210618 0.01809827 0 0 Z " fill="#17467D" transform="translate(159.515380859375,180.595947265625)"/>
<path d="M0 0 C1.1975592 -0.00137466 2.39511841 -0.00274933 3.62896729 -0.00416565 C4.96292139 -0.00062629 6.29687525 0.00300852 7.63082886 0.00672913 C9.03012083 0.00701108 10.42941295 0.0068531 11.82870483 0.00628662 C15.63426304 0.00599897 19.43978992 0.01189046 23.24534082 0.01886058 C27.21985371 0.02509951 31.19436725 0.02569834 35.16888428 0.02688599 C42.69825927 0.0299977 50.22761979 0.03820895 57.75698841 0.04823548 C66.32760733 0.05940155 74.89822694 0.06490831 83.46885133 0.06993091 C101.10211637 0.08039169 118.73536794 0.09798806 136.36862183 0.12025452 C136.36862183 0.45025452 136.36862183 0.78025452 136.36862183 1.12025452 C66.07862183 1.61525452 66.07862183 1.61525452 -5.63137817 2.12025452 C-5.30137817 3.44025452 -4.97137817 4.76025452 -4.63137817 6.12025452 C-5.56887817 8.37025452 -5.56887817 8.37025452 -6.63137817 10.12025452 C-6.01262817 9.62525452 -5.39387817 9.13025452 -4.75637817 8.62025452 C-2.63137817 7.12025452 -2.63137817 7.12025452 -0.63137817 7.12025452 C-0.63137817 13.06025452 -0.63137817 19.00025452 -0.63137817 25.12025452 C-0.96137817 25.12025452 -1.29137817 25.12025452 -1.63137817 25.12025452 C-1.63137817 20.50025452 -1.63137817 15.88025452 -1.63137817 11.12025452 C-2.95137817 11.12025452 -4.27137817 11.12025452 -5.63137817 11.12025452 C-5.62614136 12.01518616 -5.62090454 12.9101178 -5.61550903 13.83216858 C-5.46277924 43.95280352 -5.46277924 43.95280352 -6.00637817 55.93275452 C-6.03723511 56.72391663 -6.06809204 57.51507874 -6.09988403 58.33021545 C-6.29845599 62.02423191 -6.59783827 64.97074759 -8.63137817 68.12025452 C-6.57867355 66.2783684 -6.57867355 66.2783684 -5.63137817 64.12025452 C-4.97137817 64.12025452 -4.31137817 64.12025452 -3.63137817 64.12025452 C-3.63137817 62.80025452 -3.63137817 61.48025452 -3.63137817 60.12025452 C-4.29137817 59.79025452 -4.95137817 59.46025452 -5.63137817 59.12025452 C-4.97137817 59.12025452 -4.31137817 59.12025452 -3.63137817 59.12025452 C-3.63137817 57.14025452 -3.63137817 55.16025452 -3.63137817 53.12025452 C-2.64137817 53.12025452 -1.65137817 53.12025452 -0.63137817 53.12025452 C-1.32704475 61.81118762 -3.28939129 70.19640594 -5.19387817 78.68275452 C-5.52699267 80.18330968 -5.85967852 81.68396006 -6.19192505 83.18470764 C-7.00013595 86.83100129 -7.81414437 90.47597116 -8.63137817 94.12025452 C-8.96137817 94.12025452 -9.29137817 94.12025452 -9.63137817 94.12025452 C-9.68036255 93.41900452 -9.72934692 92.71775452 -9.77981567 91.99525452 C-9.8545813 91.04650452 -9.92934692 90.09775452 -10.00637817 89.12025452 C-10.07598755 88.19212952 -10.14559692 87.26400452 -10.21731567 86.30775452 C-10.55592793 82.99431075 -10.55592793 82.99431075 -11.77151489 79.43397522 C-12.91179204 74.92840065 -12.03548297 71.30834829 -10.80325317 66.91322327 C-7.63571074 53.90460804 -7.95581212 40.74691093 -7.88137817 27.43275452 C-7.85315264 24.86958393 -7.82321631 22.30643159 -7.79153442 19.74330139 C-7.71846302 13.53569088 -7.6663658 7.32819056 -7.63137817 1.12025452 C-4.97439397 -0.20823758 -2.97646307 -0.00262475 0 0 Z " fill="#15477F" transform="translate(168.63137817382813,210.87974548339844)"/>
<path d="M0 0 C48.51 0.495 48.51 0.495 98 1 C97.67 2.32 97.34 3.64 97 5 C64.66 5 32.32 5 -1 5 C-0.67 3.35 -0.34 1.7 0 0 Z " fill="#004491" transform="translate(214,200)"/>
<path d="M0 0 C0.33 0 0.66 0 1 0 C1.02688151 1.64574566 1.04634123 3.29161413 1.0625 4.9375 C1.07410156 5.85402344 1.08570313 6.77054687 1.09765625 7.71484375 C1 10 1 10 0 11 C-0.04063832 12.66617115 -0.042721 14.33388095 0 16 C0.99 16 1.98 16 3 16 C3.66 12.37 4.32 8.74 5 5 C5.33 5 5.66 5 6 5 C5.40335139 13.21601256 3.86634614 21.1246191 2.09863281 29.15161133 C1.62259107 31.32349042 1.16250481 33.49837152 0.703125 35.67382812 C0.3993956 37.0705212 0.09474086 38.46701343 -0.2109375 39.86328125 C-0.61771729 41.73947144 -0.61771729 41.73947144 -1.03271484 43.65356445 C-2.00975876 47.03376156 -2.8259383 49.24075592 -5 52 C-7.82107067 52.61523914 -7.82107067 52.61523914 -11.3210907 52.60127258 C-11.96477169 52.60554471 -12.60845269 52.60981683 -13.27163917 52.61421841 C-15.43269169 52.62246729 -17.59181137 52.59493723 -19.75268555 52.56762695 C-21.29990595 52.56621687 -22.84712969 52.56700769 -24.39434814 52.56983948 C-28.59887377 52.57127661 -32.80268908 52.54183945 -37.00704932 52.50696969 C-41.39926048 52.47575528 -45.79148715 52.47277935 -50.18379211 52.46684265 C-58.50306033 52.45128969 -66.82200079 52.41024172 -75.14112455 52.3600952 C-84.61134247 52.30424679 -94.08157588 52.2767266 -103.55191743 52.25161803 C-123.03479758 52.19932702 -142.51737246 52.11135667 -162 52 C-162 51.67 -162 51.34 -162 51 C-110.52 51 -59.04 51 -6 51 C-5.67 49.35 -5.34 47.7 -5 46 C-4.34 46 -3.68 46 -3 46 C-3.33 43.03 -3.66 40.06 -4 37 C-6.5654594 39.5654594 -6.54046087 41.47686668 -7 45 C-7.66 45 -8.32 45 -9 45 C-7.61475093 34.93567464 -5.59217888 25.09425834 -3.375 15.1875 C-3.0464934 13.70516264 -2.71836623 12.22274114 -2.390625 10.74023438 C-1.59810581 7.15917917 -0.80051422 3.5792776 0 0 Z " fill="#12437B" transform="translate(322,276)"/>
<path d="M0 0 C1.65 0 3.3 0 5 0 C5.83739781 2.1234016 6.66980283 4.2487728 7.5 6.375 C7.9640625 7.55835938 8.428125 8.74171875 8.90625 9.9609375 C10 13 10 13 10 15 C10.66 15 11.32 15 12 15 C12.16435547 14.12988281 12.16435547 14.12988281 12.33203125 13.2421875 C13.3143365 8.40253723 14.54821911 4.34633884 17 0 C18.65 0 20.3 0 22 0 C23.98 5.94 25.96 11.88 28 18 C26.35 18 24.7 18 23 18 C22.67 17.34 22.34 16.68 22 16 C18.97065509 15.34227572 18.97065509 15.34227572 16 15 C15.67 15.99 15.34 16.98 15 18 C12.03 18 9.06 18 6 18 C5.67 17.34 5.34 16.68 5 16 C1.97065509 15.34227572 1.97065509 15.34227572 -1 15 C-1 15.99 -1 16.98 -1 18 C-2.65 18 -4.3 18 -6 18 C-4.41039668 11.76559832 -2.72399099 5.83712355 0 0 Z M2 7 C1.67 8.32 1.34 9.64 1 11 C1.99 11 2.98 11 4 11 C3.34 9.68 2.68 8.36 2 7 Z M18 7 C18 8.32 18 9.64 18 11 C18.99 10.67 19.98 10.34 21 10 C20.67 9.01 20.34 8.02 20 7 C19.34 7 18.68 7 18 7 Z " fill="#144683" transform="translate(256,293)"/>
<path d="M0 0 C1.32 0 2.64 0 4 0 C4 4.62 4 9.24 4 14 C7.8726592 14.9681648 11.03611362 15.07622858 15 15 C12.51047079 17.66735273 10.36591866 19.55746343 7 21 C7.33 21.33 7.66 21.66 8 22 C8.56115584 28.57726846 7.71495553 34.66078938 6 41 C4.02 41.495 4.02 41.495 2 42 C2.185625 42.515625 2.37125 43.03125 2.5625 43.5625 C3.16312541 46.90884154 2.67499819 49.68637251 2 53 C1.34 53.66 0.68 54.32 0 55 C-0.33 55.66 -0.66 56.32 -1 57 C-1.66 57 -2.32 57 -3 57 C-2.93941406 56.44054687 -2.87882813 55.88109375 -2.81640625 55.3046875 C-1.43531411 42.08869806 -0.79521482 28.89986993 -0.4375 15.625 C-0.3941537 14.09895054 -0.35053531 12.57290878 -0.30664062 11.046875 C-0.20130413 7.36466642 -0.09960138 3.68236872 0 0 Z " fill="#034591" transform="translate(163,222)"/>
<path d="M0 0 C1.00403366 -0.00137466 2.00806732 -0.00274933 3.04252625 -0.00416565 C4.70084724 0.00122726 4.70084724 0.00122726 6.39266968 0.00672913 C7.55363663 0.0065831 8.71460358 0.00643707 9.91075134 0.00628662 C13.76330407 0.00698549 17.61580895 0.0147767 21.46835327 0.02259827 C24.13350507 0.02446254 26.79865418 0.02593557 29.46380615 0.02688599 C35.77133162 0.02999707 42.07883981 0.03820745 48.38635767 0.04823548 C55.56643432 0.05940353 62.7465118 0.06490881 69.92659497 0.06993091 C84.69833575 0.08039024 99.47006296 0.09798538 114.24179077 0.12025452 C114.24179077 0.78025452 114.24179077 1.44025452 114.24179077 2.12025452 C74.97179077 2.12025452 35.70179077 2.12025452 -4.75820923 2.12025452 C-4.75820923 3.44025452 -4.75820923 4.76025452 -4.75820923 6.12025452 C-5.74820923 6.45025452 -6.73820923 6.78025452 -7.75820923 7.12025452 C-7.38320923 4.18275452 -7.38320923 4.18275452 -6.75820923 1.12025452 C-4.31002715 -0.10383652 -2.73722363 -0.00288129 0 0 Z " fill="#17477F" transform="translate(185.75820922851563,222.87974548339844)"/>
<path d="M0 0 C3.27621422 2.11133805 4.41761243 3.17029356 5.8125 6.8125 C6.46174211 11.67780814 6.56318771 15.47794408 4.125 19.8125 C0.23412237 23.17758336 -2.59719295 24.02857402 -7.6875 23.75 C-12.22115545 23.13040042 -14.34182923 21.45851568 -17.1875 17.8125 C-19.04712086 14.09325827 -18.76148707 9.86229769 -18.1875 5.8125 C-13.30821277 -0.69321631 -7.75088606 -2.887585 0 0 Z M-14.1875 5.8125 C-15.73774464 8.91298928 -15.47742015 11.39144218 -15.1875 14.8125 C-13.64590162 17.76723023 -12.50662036 19.34158229 -9.31640625 20.48046875 C-5.39819776 21.22855771 -3.72701646 21.14539313 -0.25 19 C2.86003882 15.70147398 3.22246855 13.34595883 3.15625 8.78515625 C2.93928328 6.53310247 2.93928328 6.53310247 0.6875 4.375 C-5.54265589 0.98904571 -8.64606108 1.30202646 -14.1875 5.8125 Z " fill="#D4191D" transform="translate(206.1875,279.1875)"/>
<path d="M0 0 C1.20970459 0.00523682 2.41940918 0.01047363 3.66577148 0.01586914 C4.97094727 0.0190918 6.27612305 0.02231445 7.62084961 0.02563477 C9.00952213 0.03399138 10.39819401 0.04245634 11.78686523 0.05102539 C13.17944179 0.05603873 14.57202005 0.06060193 15.96459961 0.06469727 C19.38456394 0.07653105 22.80444367 0.09301659 26.22436523 0.11352539 C26.84936523 2.48852539 26.84936523 2.48852539 27.22436523 5.11352539 C25.22436523 7.11352539 25.22436523 7.11352539 22.44287109 7.35644531 C21.2866626 7.35233643 20.1304541 7.34822754 18.93920898 7.34399414 C17.68688477 7.34206055 16.43456055 7.34012695 15.14428711 7.33813477 C13.17298828 7.31976563 13.17298828 7.31976563 11.16186523 7.30102539 C9.84379883 7.30038086 8.52573242 7.29973633 7.16772461 7.29907227 C-2.63554354 7.25361662 -2.63554354 7.25361662 -3.77563477 6.11352539 C-3.90063477 3.61352539 -3.90063477 3.61352539 -3.77563477 1.11352539 C-2.77563477 0.11352539 -2.77563477 0.11352539 0 0 Z " fill="#0E4688" transform="translate(176.775634765625,192.886474609375)"/>
<path d="M0 0 C10.7 0 10.7 0 14 2 C16.61234256 5.35872614 16.43251303 8.89112621 16 13 C14.75 15.9375 14.75 15.9375 12 18 C7.90654111 18.42458749 4.13599589 18.22478239 0 18 C0 12.06 0 6.12 0 0 Z M5 4 C5 7.63 5 11.26 5 15 C9.63019987 14.5547002 9.63019987 14.5547002 11 13 C11.33338596 9.54187831 11.33338596 9.54187831 11 6 C8.18490007 3.7226499 8.18490007 3.7226499 5 4 Z " fill="#15457D" transform="translate(285,293)"/>
<path d="M0 0 C0.66 0 1.32 0 2 0 C3.34726969 9.77176327 2.51761599 17.51271263 0 27 C-0.66 27 -1.32 27 -2 27 C-2.03738281 27.61488281 -2.07476562 28.22976563 -2.11328125 28.86328125 C-2.17902344 29.67152344 -2.24476563 30.47976563 -2.3125 31.3125 C-2.37050781 32.11300781 -2.42851562 32.91351563 -2.48828125 33.73828125 C-3.08206694 36.36272334 -3.95780294 37.30820672 -6 39 C-6.66 38.67 -7.32 38.34 -8 38 C-8.042721 36.33388095 -8.04063832 34.66617115 -8 33 C-7.505 32.505 -7.505 32.505 -7 32 C-6.8136108 29.60060886 -6.66956017 27.21565918 -6.5625 24.8125 C-6.33230984 19.82178153 -5.79569309 15.67461803 -4 11 C-3.34 11 -2.68 11 -2 11 C-1.93941406 10.37351562 -1.87882812 9.74703125 -1.81640625 9.1015625 C-1.73261719 8.28429687 -1.64882813 7.46703125 -1.5625 6.625 C-1.48128906 5.81289063 -1.40007812 5.00078125 -1.31640625 4.1640625 C-1 2 -1 2 0 0 Z " fill="#06448C" transform="translate(329,254)"/>
<path d="M0 0 C1.65 0 3.3 0 5 0 C5.84378975 2.05824429 6.67463622 4.12179786 7.5 6.1875 C7.9640625 7.33605469 8.428125 8.48460937 8.90625 9.66796875 C9.90805652 12.71990077 10.23870804 14.83115072 10 18 C8.68 18 7.36 18 6 18 C5.67 17.34 5.34 16.68 5 16 C1.97065509 15.34227572 1.97065509 15.34227572 -1 15 C-1 15.99 -1 16.98 -1 18 C-2.65 18 -4.3 18 -6 18 C-4.41039668 11.76559832 -2.72399099 5.83712355 0 0 Z M2 7 C1.67 8.32 1.34 9.64 1 11 C1.99 11 2.98 11 4 11 C3.34 9.68 2.68 8.36 2 7 Z " fill="#EA080E" transform="translate(256,293)"/>
<path d="M0 0 C8.58 0 17.16 0 26 0 C26 6.27 26 12.54 26 19 C20.72 19 15.44 19 10 19 C10 18.01 10 17.02 10 16 C14.29 16 18.58 16 23 16 C23 11.38 23 6.76 23 2 C16.4 2 9.8 2 3 2 C3 3.32 3 4.64 3 6 C2.01 6 1.02 6 0 6 C0 4.02 0 2.04 0 0 Z " fill="#CA0F14" transform="translate(208,266)"/>
<path d="M0 0 C15.51 0 31.02 0 47 0 C47 0.99 47 1.98 47 3 C31.49 3 15.98 3 0 3 C0 2.01 0 1.02 0 0 Z " fill="#C6282D" transform="translate(186,259)"/>
<path d="M0 0 C1.32 0 2.64 0 4 0 C4 5.94 4 11.88 4 18 C2.35 18 0.7 18 -1 18 C-1.02684312 15.18743719 -1.04676188 12.37512759 -1.0625 9.5625 C-1.07087891 8.76005859 -1.07925781 7.95761719 -1.08789062 7.13085938 C-1.0965143 5.08704779 -1.0522815 3.04316098 -1 1 C-0.67 0.67 -0.34 0.34 0 0 Z " fill="#0A407F" transform="translate(304,293)"/>
<path d="M0 0 C0.66 0 1.32 0 2 0 C2.33 5.94 2.66 11.88 3 18 C-2.28 18 -7.56 18 -13 18 C-13 17.01 -13 16.02 -13 15 C-8.71 15 -4.42 15 0 15 C0 10.05 0 5.1 0 0 Z " fill="#E0181C" transform="translate(231,267)"/>
<path d="M0 0 C3.63 0 7.26 0 11 0 C10.01 0.33 9.02 0.66 8 1 C8 1.66 8 2.32 8 3 C6.68 3 5.36 3 4 3 C3.67 6.96 3.34 10.92 3 15 C4.65 15 6.3 15 8 15 C8 15.33 8 15.66 8 16 C5.36 16 2.72 16 0 16 C0 10.72 0 5.44 0 0 Z " fill="#074489" transform="translate(286,294)"/>
<path d="M0 0 C0.33 0 0.66 0 1 0 C1.09959145 6.20722892 1.17180805 12.41398288 1.21972656 18.62182617 C1.23972278 20.72933057 1.26692893 22.83678034 1.30175781 24.9440918 C1.6638862 47.43332966 1.6638862 47.43332966 -3 56 C-3.33 56 -3.66 56 -4 56 C-3.88260541 54.52021031 -3.75553868 53.04118816 -3.625 51.5625 C-3.55539063 50.73878906 -3.48578125 49.91507812 -3.4140625 49.06640625 C-3.0778466 46.57650551 -2.59876821 44.29949122 -2 41.86914062 C-0.95667939 37.22220038 -0.65786274 32.77751341 -0.5859375 28.02734375 C-0.56657135 27.21882462 -0.5472052 26.41030548 -0.5272522 25.57728577 C-0.4681501 23.03079303 -0.42135289 20.48425336 -0.375 17.9375 C-0.33675613 16.19594537 -0.29770083 14.45440836 -0.2578125 12.71289062 C-0.16250713 8.47540594 -0.07822518 4.237833 0 0 Z " fill="#17457B" transform="translate(161,230)"/>
<path d="M0 0 C2.29633824 3.44450737 2.54016485 5.93812283 3 10 C1.68 10 0.36 10 -1 10 C-1.33 9.34 -1.66 8.68 -2 8 C-5.02934491 7.34227572 -5.02934491 7.34227572 -8 7 C-8 7.99 -8 8.98 -8 10 C-9.65 10 -11.3 10 -13 10 C-12.34 7.36 -11.68 4.72 -11 2 C-10.67 2.99 -10.34 3.98 -10 5 C-8.700625 4.979375 -7.40125 4.95875 -6.0625 4.9375 C-4.70834367 4.91600546 -3.35243917 4.92851801 -2 5 C-1.67 5.33 -1.34 5.66 -1 6 C-0.67 4.02 -0.34 2.04 0 0 Z " fill="#CC171B" transform="translate(263,301)"/>
<path d="M0 0 C0.08333357 4.8333472 -0.04738513 9.23692563 -1 14 C-2.9375 14.5625 -2.9375 14.5625 -5 15 C-6 14 -6 14 -6.1875 11.3125 C-5.98944962 7.81361002 -5.38744118 5.21302169 -4 2 C-1 0 -1 0 0 0 Z " fill="#024491" transform="translate(323,296)"/>
<path d="M0 0 C3.3 0 6.6 0 10 0 C10.33 1.65 10.66 3.3 11 5 C13.64 4.67 16.28 4.34 19 4 C19.99 5.485 19.99 5.485 21 7 C16.82262526 8.59138085 13.46839215 9.21278058 9 9 C9 6.33333333 9 3.66666667 9 1 C6.36 1 3.72 1 1 1 C0.67 2.32 0.34 3.64 0 5 C0 3.35 0 1.7 0 0 Z " fill="#CF2325" transform="translate(195,269)"/>
<path d="M0 0 C0 0.99 0 1.98 0 3 C-0.83144531 3.27263672 -0.83144531 3.27263672 -1.6796875 3.55078125 C-2.40414062 3.80214844 -3.12859375 4.05351562 -3.875 4.3125 C-4.59429687 4.55613281 -5.31359375 4.79976563 -6.0546875 5.05078125 C-8.33994905 5.96335547 -8.33994905 5.96335547 -10 9 C-10.38499891 10.65549531 -10.72793135 12.3222433 -11 14 C-11.33 14 -11.66 14 -12 14 C-12 10.7 -12 7.4 -12 4 C-4.71428571 -0.57142857 -4.71428571 -0.57142857 0 0 Z " fill="#C51E20" transform="translate(202,278)"/>
<path d="M0 0 C2.5625 0.1875 2.5625 0.1875 4.5625 2.1875 C4.1875 4.8125 4.1875 4.8125 3.5625 7.1875 C1.56295254 7.23004356 -0.43791636 7.22830783 -2.4375 7.1875 C-3.4375 6.1875 -3.4375 6.1875 -3.5625 3.6875 C-3.39599509 0.35740177 -3.31519894 0.2550153 0 0 Z " fill="#D01D22" transform="translate(229.4375,249.8125)"/>
<path d="M0 0 C2.5625 -0.25 2.5625 -0.25 5 0 C6 1 6 1 6.125 3.5 C6 6 6 6 5 7 C3.33382885 7.04063832 1.66611905 7.042721 0 7 C-0.66 5.68 -1.32 4.36 -2 3 C-1.34 2.01 -0.68 1.02 0 0 Z " fill="#CA1F24" transform="translate(209,250)"/>
<path d="M0 0 C2.5 0.125 2.5 0.125 3.5 1.125 C3.625 3.625 3.625 3.625 3.5 6.125 C2.5 7.125 2.5 7.125 0 7.25 C-2.5 7.125 -2.5 7.125 -3.5 6.125 C-3.625 3.625 -3.625 3.625 -3.5 1.125 C-2.5 0.125 -2.5 0.125 0 0 Z " fill="#BD252B" transform="translate(220.5,249.875)"/>
<path d="M0 0 C0.66 0 1.32 0 2 0 C2.76681614 7.66816143 2.76681614 7.66816143 0.88671875 10.93359375 C-0.5 12.5625 -0.5 12.5625 -3 15 C-3.33 13.68 -3.66 12.36 -4 11 C-3.34 11 -2.68 11 -2 11 C-1.93941406 10.37351562 -1.87882812 9.74703125 -1.81640625 9.1015625 C-1.73261719 8.28429687 -1.64882813 7.46703125 -1.5625 6.625 C-1.48128906 5.81289063 -1.40007812 5.00078125 -1.31640625 4.1640625 C-1 2 -1 2 0 0 Z " fill="#024595" transform="translate(329,254)"/>
<path d="M0 0 C2.97922593 -0.02683987 5.95821295 -0.04676037 8.9375 -0.0625 C9.78763672 -0.07087891 10.63777344 -0.07925781 11.51367188 -0.08789062 C12.32255859 -0.09111328 13.13144531 -0.09433594 13.96484375 -0.09765625 C14.7137085 -0.10289307 15.46257324 -0.10812988 16.23413086 -0.11352539 C18 0 18 0 19 1 C19.07205511 2.68608966 19.08386068 4.37500659 19.0625 6.0625 C19.05347656 6.98160156 19.04445313 7.90070313 19.03515625 8.84765625 C19.02355469 9.55792969 19.01195312 10.26820313 19 11 C20.65 11 22.3 11 24 11 C24 11.33 24 11.66 24 12 C22.02 12 20.04 12 18 12 C17.34 8.7 16.68 5.4 16 2 C10.72 1.67 5.44 1.34 0 1 C0 0.67 0 0.34 0 0 Z " fill="#13457E" transform="translate(288,212)"/>
<path d="M0 0 C1.67542976 0.28604898 3.34385343 0.61781233 5 1 C5.33 1.99 5.66 2.98 6 4 C5.01 5.485 5.01 5.485 4 7 C2.35 6.67 0.7 6.34 -1 6 C-1.042721 4.33388095 -1.04063832 2.66617115 -1 1 C-0.67 0.67 -0.34 0.34 0 0 Z " fill="#154580" transform="translate(162,193)"/>
<path d="M0 0 C1.32 0 2.64 0 4 0 C4 0.66 4 1.32 4 2 C3.01 2.495 3.01 2.495 2 3 C2.33 5.64 2.66 8.28 3 11 C2.34 11 1.68 11 1 11 C1 9.68 1 8.36 1 7 C-0.32 6.67 -1.64 6.34 -3 6 C-2.42655063 3.13275314 -2.1385485 2.1385485 0 0 Z " fill="#D9151A" transform="translate(185,274)"/>
<path d="M0 0 C0.33 1.32 0.66 2.64 1 4 C2.65 4.33 4.3 4.66 6 5 C6 3.68 6 2.36 6 1 C6.66 1 7.32 1 8 1 C8 3.31 8 5.62 8 8 C4.7 7.34 1.4 6.68 -2 6 C-1 1 -1 1 0 0 Z " fill="#EB0406" transform="translate(255,300)"/>
<path d="M0 0 C0 2.31 0 4.62 0 7 C0.99 7.33 1.98 7.66 3 8 C-2.75 8.125 -2.75 8.125 -5 7 C-5 5.35 -5 3.7 -5 2 C-1.125 0 -1.125 0 0 0 Z " fill="#074182" transform="translate(154,320)"/>
<path d="M0 0 C0.66 0 1.32 0 2 0 C2.33 1.98 2.66 3.96 3 6 C-0.28976808 7.09658936 -1.71303767 6.79953138 -5 6 C-5 8.31 -5 10.62 -5 13 C-3.02 13.495 -3.02 13.495 -1 14 C-2.65 14 -4.3 14 -6 14 C-6 11.03 -6 8.06 -6 5 C-4.02 5 -2.04 5 0 5 C0 3.35 0 1.7 0 0 Z " fill="#DB252C" transform="translate(184,281)"/>
<path d="M0 0 C2.125 0.9375 2.125 0.9375 4 2 C-0.22949995 4.41685712 -3.12335991 5.34833144 -8 5 C-8.33 3.68 -8.66 2.36 -9 1 C-7.88625 1.020625 -6.7725 1.04125 -5.625 1.0625 C-2.16784079 1.26380718 -2.16784079 1.26380718 0 0 Z " fill="#CC2126" transform="translate(205,298)"/>
<path d="M0 0 C1.65 0 3.3 0 5 0 C5.33 1.32 5.66 2.64 6 4 C5.01 4 4.02 4 3 4 C3 6.31 3 8.62 3 11 C2.67 11 2.34 11 2 11 C1.87625 9.88625 1.7525 8.7725 1.625 7.625 C1.3534187 3.96896323 1.3534187 3.96896323 -1 2 C-0.67 1.34 -0.34 0.68 0 0 Z " fill="#0F4078" transform="translate(294,295)"/>
<path d="M0 0 C1.2065625 0.0309375 1.2065625 0.0309375 2.4375 0.0625 C2.4375 0.7225 2.4375 1.3825 2.4375 2.0625 C1.1175 2.0625 -0.2025 2.0625 -1.5625 2.0625 C-1.665625 2.825625 -1.76875 3.58875 -1.875 4.375 C-2.62040616 7.28886046 -3.40708939 8.09200397 -5.5625 10.0625 C-5.25451674 8.58238629 -4.940982 7.10342675 -4.625 5.625 C-4.45097656 4.80128906 -4.27695313 3.97757812 -4.09765625 3.12890625 C-3.31713345 0.11506273 -3.19062011 0.07782 0 0 Z " fill="#C8171E" transform="translate(258.5625,292.9375)"/>
<path d="M0 0 C0.33 0 0.66 0 1 0 C1 1.98 1 3.96 1 6 C1.66 6 2.32 6 3 6 C2.67 6.99 2.34 7.98 2 9 C0.35 9 -1.3 9 -3 9 C-3 8.01 -3 7.02 -3 6 C-2.34 6 -1.68 6 -1 6 C-0.67 4.02 -0.34 2.04 0 0 Z " fill="#283E6E" transform="translate(269,302)"/>
<path d="M0 0 C0.99 0 1.98 0 3 0 C2.88490339 1.41750563 2.75746342 2.83401169 2.625 4.25 C2.55539063 5.03890625 2.48578125 5.8278125 2.4140625 6.640625 C1.98492887 9.085877 1.21399362 10.84836903 0 13 C0 11.02 0 9.04 0 7 C-0.66 6.67 -1.32 6.34 -2 6 C-1.34 6 -0.68 6 0 6 C0 4.02 0 2.04 0 0 Z " fill="#124582" transform="translate(165,264)"/>
<path d="M0 0 C0.33 0.99 0.66 1.98 1 3 C1.66 3 2.32 3 3 3 C3 4.65 3 6.3 3 8 C1.35 8 -0.3 8 -2 8 C-1.34 5.36 -0.68 2.72 0 0 Z " fill="#DA1216" transform="translate(252,303)"/>
<path d="M0 0 C2.31 0 4.62 0 7 0 C5.02 0.99 5.02 0.99 3 2 C3 3.32 3 4.64 3 6 C2.01 6 1.02 6 0 6 C0 4.02 0 2.04 0 0 Z " fill="#D21A1F" transform="translate(208,266)"/>
<path d="M0 0 C1.65 0 3.3 0 5 0 C5 0.66 5 1.32 5 2 C4.01 2 3.02 2 2 2 C2 3.32 2 4.64 2 6 C2.66 6.33 3.32 6.66 4 7 C2.68 7 1.36 7 0 7 C0 4.69 0 2.38 0 0 Z " fill="#DA131D" transform="translate(179,287)"/>
<path d="M0 0 C2.35981813 0.93578995 4.69631264 1.93347808 7 3 C6.34 3.66 5.68 4.32 5 5 C2.375 4.625 2.375 4.625 0 4 C0 3.34 0 2.68 0 2 C-0.66 1.67 -1.32 1.34 -2 1 C-1.34 0.67 -0.68 0.34 0 0 Z " fill="#DD131A" transform="translate(202,278)"/>
<path d="M0 0 C2 3 2 3 2 6 C1.34 6 0.68 6 0 6 C0 7.32 0 8.64 0 10 C-0.99 9.67 -1.98 9.34 -3 9 C-2.34 9 -1.68 9 -1 9 C-1.20625 8.443125 -1.4125 7.88625 -1.625 7.3125 C-2.10695211 4.340462 -1.26565028 2.68020059 0 0 Z " fill="#D4191A" transform="translate(261,295)"/>
<path d="M0 0 C2.475 0.495 2.475 0.495 5 1 C4.67 1.99 4.34 2.98 4 4 C1.9375 4.6875 1.9375 4.6875 0 5 C0 3.35 0 1.7 0 0 Z " fill="#074790" transform="translate(273,295)"/>
<path d="M0 0 C1.65 0 3.3 0 5 0 C5 1.32 5 2.64 5 4 C3.35 4 1.7 4 0 4 C0 2.68 0 1.36 0 0 Z " fill="#DF191A" transform="translate(219,252)"/>
<path d="M0 0 C1.9375 0.6875 1.9375 0.6875 4 2 C4.75 4.625 4.75 4.625 5 7 C2 6 2 6 0 3 C0 2.01 0 1.02 0 0 Z " fill="#D01D25" transform="translate(183,293)"/>
<path d="M0 0 C2.49361571 1.20381448 4.68143083 2.45428722 7 4 C5.02 4.99 5.02 4.99 3 6 C2.34 5.34 1.68 4.68 1 4 C1.33 3.34 1.66 2.68 2 2 C1.01 1.67 0.02 1.34 -1 1 C-0.67 0.67 -0.34 0.34 0 0 Z " fill="#C4262B" transform="translate(187,272)"/>
<path d="M0 0 C2.97 0 5.94 0 9 0 C9 0.66 9 1.32 9 2 C6.03 2 3.06 2 0 2 C0 1.34 0 0.68 0 0 Z " fill="#CE1823" transform="translate(186,266)"/>
<path d="M0 0 C0.66 0 1.32 0 2 0 C2 0.99 2 1.98 2 3 C3.32 3.33 4.64 3.66 6 4 C4.02 4.66 2.04 5.32 0 6 C0 4.02 0 2.04 0 0 Z " fill="#04438D" transform="translate(270,302)"/>
</svg>
