 <svg
        width="200px"
        height="200px"
        viewBox="0 0 36 36"
        xmlns="http://www.w3.org/2000/svg"
        aria-hidden="true"
        role="img"
        className="shadow-lg rounded-lg"
        preserveAspectRatio="xMidYMid meet"
      >
        {/* Blue background */}
        <path fill="#3B88C3" d="M36 32a4 4 0 0 1-4 4H4a4 4 0 0 1-4-4V4a4 4 0 0 1 4-4h28a4 4 0 0 1 4 4v28z" />

        {/* Letter C */}
        <path
          fill="#FFF"
          d="M14 10c-3.5 0-6 2.5-6 8s2.5 8 6 8c2 0 3.5-0.8 4.5-2l2.5 2c-1.5 2-4 3-7 3c-5 0-9-4-9-11s4-11 9-11c3 0 5.5 1 7 3l-2.5 2c-1-1.2-2.5-2-4.5-2z"
        />

        {/* Letter I */}
        <path fill="#FFF" d="M24 8h4v20h-4V8z" />
      </svg>